<svg width="28" height="20" viewBox="0 0 28 20" fill="none" xmlns="http://www.w3.org/2000/svg">
<path d="M23.4691 2.86761C25.0668 2.86763 25.911 3.67647 25.911 5.24004V17.6365H28V18.8188C27.9998 19.476 27.4729 20 26.8103 20H2.78822C2.12562 20 1.59873 19.476 1.59851 18.8188V17.6365H3.68748V14.8402C3.93058 14.7951 4.1831 14.7401 4.39572 14.6907L5.29387 14.481V17.6365H24.3046V5.6572C24.3046 4.84004 23.8871 4.44048 23.0613 4.44031H16.571L16.2046 2.86761H23.4691Z" fill="white"/>
<path d="M11.3485 0.176174C11.9725 0.0312239 12.2851 -0.0414053 12.5517 0.0244809C12.786 0.08242 12.996 0.212713 13.1515 0.397021C13.3284 0.606736 13.4008 0.918632 13.5459 1.54141L15.0495 7.99394C15.1946 8.61662 15.2672 8.92802 15.2014 9.1941C15.1434 9.42821 15.0131 9.63883 14.8283 9.79418C14.6182 9.97077 14.306 10.043 13.6822 10.1879L3.87739 12.4655C3.2534 12.6105 2.94086 12.6831 2.67427 12.6172C2.43996 12.5592 2.22989 12.428 2.07439 12.2436C1.89772 12.0338 1.82515 11.7219 1.68006 11.0992L0.176444 4.64777C0.0312718 4.02474 -0.0414687 3.71267 0.0245184 3.4465C0.0825846 3.21244 0.214004 3.00285 0.398746 2.84753C0.608822 2.67103 0.921087 2.59871 1.54489 2.4538L11.3485 0.176174Z" fill="white"/>
</svg>
