<svg width="16" height="16" viewBox="0 0 16 16" fill="none" xmlns="http://www.w3.org/2000/svg">
<path d="M2.24165 11.5167C2.83616 11.5167 3.40633 11.7529 3.82672 12.1733C4.24712 12.5936 4.48329 13.1638 4.48329 13.7584C4.48329 14.9717 3.47558 16 2.24165 16C1.02828 16 0 14.9717 0 13.7584C0 13.1638 0.236175 12.5936 0.656566 12.1733C1.07696 11.7529 1.64713 11.5167 2.24165 11.5167ZM0 0C4.24347 0 8.31311 1.68571 11.3137 4.68629C14.3142 7.68689 16 11.7565 16 16H13.09C13.09 12.5283 11.7108 9.19887 9.25604 6.74396C6.80113 4.28914 3.47168 2.91003 0 2.91003V0ZM0 5.82005C2.69989 5.82005 5.2892 6.89255 7.19835 8.80165C9.10745 10.7108 10.1799 13.3002 10.1799 16H7.26992C7.26992 14.0719 6.50396 12.2227 5.14061 10.8594C3.77723 9.49604 1.9281 8.73008 0 8.73008V5.82005Z" fill="#EE802F"/>
</svg>
