<svg width="1600" height="1200" viewBox="0 0 1600 1200" fill="none" xmlns="http://www.w3.org/2000/svg">
<g clip-path="url(#clip0_862_36153)">
<rect width="1600" height="1200" fill="#143C39"/>
<path d="M648.979 133.069H637.699C635.916 133.069 634.384 132.417 633.104 131.114C631.847 129.834 631.219 128.303 631.219 126.52V91.5486C631.219 89.7657 631.847 88.2343 633.104 86.9543C634.384 85.6514 635.916 85 637.699 85H654.362V90.3829H652.51V86.8857H637.699C636.419 86.8857 635.333 87.3429 634.442 88.2571C633.55 89.1714 633.104 90.2686 633.104 91.5486V126.52C633.104 127.8 633.55 128.886 634.442 129.777C635.333 130.691 636.419 131.149 637.699 131.149H648.979C649.824 131.149 650.773 130.874 651.824 130.326C652.876 129.8 653.744 129.274 654.43 128.749L655.562 130.189C655.402 130.349 655.024 130.623 654.43 131.011C653.859 131.423 653.024 131.869 651.927 132.349C650.83 132.829 649.847 133.069 648.979 133.069Z" fill="#E3581D"/>
<path d="M726.894 118.086H702.517V117.983L698.505 131.149H700.597V133.034H694.391V131.149H696.517L710.025 86.92H708.311V85.0343H714.483V86.92H712.803L721.683 116.2H726.894V118.086ZM703.1 116.2H719.694L711.397 88.7371L703.1 116.2ZM726.243 131.149H728.3V133.034H722.094V131.149H724.288L720.894 119.903H722.814L726.243 131.149Z" fill="#E3581D"/>
<path d="M783.998 133H766.546V128.44H768.432V131.114H783.998C785.278 131.114 786.375 130.657 787.289 129.743C788.204 128.829 788.661 127.731 788.661 126.451V122.749C788.661 121.469 788.204 120.383 787.289 119.491C786.375 118.577 785.278 118.12 783.998 118.12H773.095C771.289 118.12 769.746 117.491 768.466 116.234C767.186 114.954 766.546 113.4 766.546 111.571V91.6171C766.546 89.7886 767.186 88.2457 768.466 86.9886C769.746 85.7086 771.289 85.0686 773.095 85.0686H790.546V90.28H788.661V86.9543H773.095C771.815 86.9543 770.718 87.4114 769.804 88.3257C768.889 89.24 768.432 90.3371 768.432 91.6171V111.571C768.432 112.851 768.889 113.949 769.804 114.863C770.718 115.754 771.815 116.2 773.095 116.2H783.998C785.804 116.2 787.346 116.84 788.626 118.12C789.906 119.377 790.546 120.92 790.546 122.749V126.383C790.546 128.211 789.906 129.766 788.626 131.046C787.346 132.349 785.804 133 783.998 133Z" fill="#E3581D"/>
<path d="M838.393 87.0914H836.233V131.32H838.393V133.206H832.187V131.32H834.382V87.0914H832.187V85.2057H838.393V87.0914Z" fill="#E3581D"/>
<path d="M905.945 86.9543H903.785V131.114H905.602V133H899.465V131.114H901.213L882.219 90.28V131.114H884.413V133H878.242V131.114H880.402V86.9543H878.585V85.0686H884.722V86.9543H882.802L901.968 128.234V86.9543H899.773V85.0686H905.945V86.9543Z" fill="#E3581D"/>
<path d="M962.843 133H950.5C948.603 133 946.98 132.326 945.631 130.977C944.306 129.629 943.643 128.006 943.643 126.109V91.96C943.643 90.0629 944.306 88.44 945.631 87.0914C946.98 85.7429 948.603 85.0686 950.5 85.0686H962.843C964.74 85.0686 966.351 85.7429 967.677 87.0914C969.026 88.44 969.7 90.0629 969.7 91.96V126.109C969.677 128.029 969.003 129.651 967.677 130.977C966.374 132.326 964.763 133 962.843 133ZM950.5 86.9543C949.129 86.9543 947.94 87.4457 946.934 88.4286C945.951 89.4114 945.46 90.5886 945.46 91.96V126.109C945.46 127.48 945.951 128.657 946.934 129.64C947.94 130.623 949.129 131.114 950.5 131.114H962.843C964.214 131.114 965.391 130.623 966.374 129.64C967.38 128.657 967.883 127.48 967.883 126.109V91.96C967.883 90.5886 967.38 89.4114 966.374 88.4286C965.391 87.4457 964.214 86.9543 962.843 86.9543H950.5Z" fill="#E3581D"/>
<path d="M464.673 1066C466.456 1066 467.987 1066.64 469.267 1067.92C470.547 1069.2 471.187 1070.73 471.187 1072.51V1107.49C471.187 1109.27 470.547 1110.8 469.267 1112.08C467.987 1113.36 466.456 1114 464.673 1114H445.953V1112.11H448.147V1069.7H449.999V1112.11H464.673C465.953 1112.11 467.039 1111.66 467.93 1110.74C468.845 1109.85 469.302 1108.77 469.302 1107.49V1072.51C469.302 1071.23 468.845 1070.15 467.93 1069.26C467.039 1068.34 465.953 1067.89 464.673 1067.89H445.953V1066H464.673Z" fill="#E3581D"/>
<path d="M518.417 1068.06H516.257V1112.29H518.417V1114.17H512.211V1112.29H514.406V1068.06H512.211V1066.17H518.417V1068.06Z" fill="#E3581D"/>
<path d="M577.569 1113.97H560.117V1109.41H562.003V1112.08H577.569C578.849 1112.08 579.946 1111.62 580.86 1110.71C581.774 1109.79 582.231 1108.7 582.231 1107.42V1103.71C582.231 1102.43 581.774 1101.35 580.86 1100.46C579.946 1099.54 578.849 1099.09 577.569 1099.09H566.666C564.86 1099.09 563.317 1098.46 562.037 1097.2C560.757 1095.92 560.117 1094.37 560.117 1092.54V1072.58C560.117 1070.75 560.757 1069.21 562.037 1067.95C563.317 1066.67 564.86 1066.03 566.666 1066.03H584.117V1071.25H582.231V1067.92H566.666C565.386 1067.92 564.289 1068.38 563.374 1069.29C562.46 1070.21 562.003 1071.3 562.003 1072.58V1092.54C562.003 1093.82 562.46 1094.91 563.374 1095.83C564.289 1096.72 565.386 1097.17 566.666 1097.17H577.569C579.374 1097.17 580.917 1097.81 582.197 1099.09C583.477 1100.34 584.117 1101.89 584.117 1103.71V1107.35C584.117 1109.18 583.477 1110.73 582.197 1112.01C580.917 1113.31 579.374 1113.97 577.569 1113.97Z" fill="#E3581D"/>
<path d="M643.244 1066C645.05 1066 646.581 1066.64 647.838 1067.92C649.118 1069.2 649.77 1070.73 649.792 1072.51V1092.43C649.792 1094.24 649.152 1095.78 647.872 1097.06C646.592 1098.34 645.05 1098.98 643.244 1098.98H627.644V1112.11H629.804V1113.97H623.598V1112.11H625.792V1069.7H627.644V1097.13H643.244C644.524 1097.13 645.61 1096.67 646.501 1095.76C647.415 1094.82 647.872 1093.71 647.872 1092.43V1072.51C647.872 1071.23 647.415 1070.15 646.501 1069.26C645.61 1068.34 644.524 1067.89 643.244 1067.89H623.598V1066H643.244Z" fill="#E3581D"/>
<path d="M713.891 1109.71L715.022 1111.15C714.748 1111.38 714.359 1111.66 713.856 1111.98C713.376 1112.32 712.565 1112.73 711.422 1113.21C710.302 1113.71 709.308 1113.97 708.439 1113.97H687.525V1112.11H689.925V1067.89H687.765V1066H693.936V1067.89H691.742V1112.11H708.439C709.308 1112.11 710.279 1111.84 711.353 1111.29C712.451 1110.74 713.296 1110.22 713.891 1109.71Z" fill="#E3581D"/>
<path d="M783.418 1099.05H759.041V1098.95L755.029 1112.11H757.121V1114H750.915V1112.11H753.041L766.549 1067.89H764.835V1066H771.006V1067.89H769.326L778.206 1097.17H783.418V1099.05ZM759.624 1097.17H776.218L767.921 1069.7L759.624 1097.17ZM782.766 1112.11H784.824V1114H778.618V1112.11H780.812L777.418 1100.87H779.338L782.766 1112.11Z" fill="#E3581D"/>
<path d="M846.042 1067.89L835.859 1098.19V1112.11H837.985V1114H831.779V1112.11H833.973V1098.19L823.379 1067.89H821.699V1066H827.905V1067.89H825.333L834.899 1095.21L844.019 1067.89H842.236V1066H848.442V1067.89H846.042Z" fill="#E3581D"/>
<path d="M949.569 1113.97H932.117V1109.41H934.003V1112.08H949.569C950.849 1112.08 951.946 1111.62 952.86 1110.71C953.774 1109.79 954.231 1108.7 954.231 1107.42V1103.71C954.231 1102.43 953.774 1101.35 952.86 1100.46C951.946 1099.54 950.849 1099.09 949.569 1099.09H938.666C936.86 1099.09 935.317 1098.46 934.037 1097.2C932.757 1095.92 932.117 1094.37 932.117 1092.54V1072.58C932.117 1070.75 932.757 1069.21 934.037 1067.95C935.317 1066.67 936.86 1066.03 938.666 1066.03H956.117V1071.25H954.231V1067.92H938.666C937.386 1067.92 936.289 1068.38 935.374 1069.29C934.46 1070.21 934.003 1071.3 934.003 1072.58V1092.54C934.003 1093.82 934.46 1094.91 935.374 1095.83C936.289 1096.72 937.386 1097.17 938.666 1097.17H949.569C951.374 1097.17 952.917 1097.81 954.197 1099.09C955.477 1100.34 956.117 1101.89 956.117 1103.71V1107.35C956.117 1109.18 955.477 1110.73 954.197 1112.01C952.917 1113.31 951.374 1113.97 949.569 1113.97Z" fill="#E3581D"/>
<path d="M1021.31 1109.71L1022.44 1111.15C1022.17 1111.38 1021.78 1111.66 1021.28 1111.98C1020.8 1112.32 1019.99 1112.73 1018.84 1113.21C1017.72 1113.71 1016.73 1113.97 1015.86 1113.97H994.947V1112.11H997.347V1067.89H995.187V1066H1001.36V1067.89H999.164V1112.11H1015.86C1016.73 1112.11 1017.7 1111.84 1018.78 1111.29C1019.87 1110.74 1020.72 1110.22 1021.31 1109.71Z" fill="#E3581D"/>
<path d="M1090.84 1099.05H1066.46V1098.95L1062.45 1112.11H1064.54V1114H1058.34V1112.11H1060.46L1073.97 1067.89H1072.26V1066H1078.43V1067.89H1076.75L1085.63 1097.17H1090.84V1099.05ZM1067.05 1097.17H1083.64L1075.34 1069.7L1067.05 1097.17ZM1090.19 1112.11H1092.25V1114H1086.04V1112.11H1088.23L1084.84 1100.87H1086.76L1090.19 1112.11Z" fill="#E3581D"/>
<path d="M1155.01 1092.47C1155.01 1093.63 1154.71 1094.72 1154.11 1095.73C1153.54 1096.73 1152.78 1097.52 1151.82 1098.09C1152.78 1098.66 1153.54 1099.44 1154.11 1100.42C1154.71 1101.41 1155.01 1102.48 1155.01 1103.65V1107.49C1155.01 1109.27 1154.37 1110.8 1153.09 1112.08C1151.83 1113.36 1150.31 1114 1148.53 1114H1130.29V1112.11H1131.86V1100.9H1133.68V1112.11H1148.53C1149.81 1112.11 1150.89 1111.66 1151.78 1110.74C1152.67 1109.85 1153.12 1108.77 1153.12 1107.49V1103.65C1153.12 1102.37 1152.67 1101.28 1151.78 1100.39C1150.89 1099.5 1149.81 1099.05 1148.53 1099.05H1129.98V1097.17H1131.86V1069.77H1133.68V1097.17H1148.53C1149.81 1097.17 1150.89 1096.71 1151.78 1095.79C1152.67 1094.88 1153.12 1093.77 1153.12 1092.47V1072.51C1153.12 1071.23 1152.67 1070.15 1151.78 1069.26C1150.89 1068.34 1149.81 1067.89 1148.53 1067.89H1130.29V1066H1148.53C1150.31 1066 1151.83 1066.64 1153.09 1067.92C1154.37 1069.2 1155.01 1070.73 1155.01 1072.51V1092.47Z" fill="#E3581D"/>
<path d="M225 492.883C220.088 492.883 215.877 494.634 212.369 498.137C208.947 501.639 207.237 505.842 207.237 510.746V525.194C207.237 530.098 208.947 534.301 212.369 537.804C215.877 541.306 220.088 543.058 225 543.058H281.711V531.499H288.948V550.15H225C218.158 550.15 212.281 547.699 207.368 542.795C202.456 537.979 200 532.112 200 525.194V510.746C200 503.828 202.456 497.961 207.368 493.145C212.281 488.242 218.158 485.79 225 485.79H263.948C268.86 485.79 273.027 484.082 276.448 480.667C279.957 477.165 281.711 472.918 281.711 467.926V391.35C281.711 388.11 280.922 385.133 279.343 382.419C277.764 379.704 275.615 377.559 272.895 375.982C270.176 374.319 267.193 373.487 263.948 373.487H207.237V384.52H200V366.394H263.948C270.79 366.394 276.667 368.846 281.58 373.75C286.492 378.566 288.948 384.433 288.948 391.35V467.795C288.948 474.713 286.492 480.623 281.58 485.527C276.667 490.431 270.79 492.883 263.948 492.883H225Z" fill="url(#paint0_linear_862_36153)"/>
<path d="M225 492.883C220.088 492.883 215.877 494.634 212.369 498.137C208.947 501.639 207.237 505.842 207.237 510.746V525.194C207.237 530.098 208.947 534.301 212.369 537.804C215.877 541.306 220.088 543.058 225 543.058H281.711V531.499H288.948V550.15H225C218.158 550.15 212.281 547.699 207.368 542.795C202.456 537.979 200 532.112 200 525.194V510.746C200 503.828 202.456 497.961 207.368 493.145C212.281 488.242 218.158 485.79 225 485.79H263.948C268.86 485.79 273.027 484.082 276.448 480.667C279.957 477.165 281.711 472.918 281.711 467.926V391.35C281.711 388.11 280.922 385.133 279.343 382.419C277.764 379.704 275.615 377.559 272.895 375.982C270.176 374.319 267.193 373.487 263.948 373.487H207.237V384.52H200V366.394H263.948C270.79 366.394 276.667 368.846 281.58 373.75C286.492 378.566 288.948 384.433 288.948 391.35V467.795C288.948 474.713 286.492 480.623 281.58 485.527C276.667 490.431 270.79 492.883 263.948 492.883H225Z" fill="#F79267"/>
<path d="M474.03 467.664C474.03 472.042 472.889 476.158 470.609 480.01C468.416 483.776 465.477 486.797 461.793 489.073C465.477 491.263 468.416 494.284 470.609 498.137C472.889 501.902 474.03 506.017 474.03 510.483V525.326C474.03 532.243 471.573 538.11 466.661 542.926C461.749 547.83 455.828 550.282 448.898 550.282H415.213C413.108 550.282 410.784 549.888 408.24 549.1C405.696 548.399 403.459 547.567 401.529 546.604C399.687 545.728 397.757 544.678 395.74 543.452C393.81 542.226 392.45 541.306 391.661 540.693C390.959 540.168 390.389 539.73 389.95 539.38L394.424 533.863C395.389 534.651 396.617 535.483 398.108 536.359C399.599 537.322 401.31 538.329 403.24 539.38C405.169 540.518 407.231 541.438 409.424 542.138C411.617 542.839 413.547 543.189 415.213 543.189H448.898C453.898 543.189 458.108 541.438 461.53 537.935C465.038 534.432 466.793 530.229 466.793 525.326V510.483C466.793 507.243 466.003 504.266 464.424 501.552C462.845 498.749 460.652 496.56 457.845 494.984C455.126 493.408 452.143 492.62 448.898 492.62H413.634V485.396H448.898C453.898 485.396 458.108 483.688 461.53 480.273C465.038 476.77 466.793 472.567 466.793 467.664V390.956C466.793 386.053 465.038 381.893 461.53 378.478C458.108 374.975 453.898 373.224 448.898 373.224H397.055V384.52H389.818V366H448.898C455.828 366 461.749 368.452 466.661 373.356C471.573 378.259 474.03 384.126 474.03 390.956V467.664Z" fill="url(#paint1_linear_862_36153)"/>
<path d="M474.03 467.664C474.03 472.042 472.889 476.158 470.609 480.01C468.416 483.776 465.477 486.797 461.793 489.073C465.477 491.263 468.416 494.284 470.609 498.137C472.889 501.902 474.03 506.017 474.03 510.483V525.326C474.03 532.243 471.573 538.11 466.661 542.926C461.749 547.83 455.828 550.282 448.898 550.282H415.213C413.108 550.282 410.784 549.888 408.24 549.1C405.696 548.399 403.459 547.567 401.529 546.604C399.687 545.728 397.757 544.678 395.74 543.452C393.81 542.226 392.45 541.306 391.661 540.693C390.959 540.168 390.389 539.73 389.95 539.38L394.424 533.863C395.389 534.651 396.617 535.483 398.108 536.359C399.599 537.322 401.31 538.329 403.24 539.38C405.169 540.518 407.231 541.438 409.424 542.138C411.617 542.839 413.547 543.189 415.213 543.189H448.898C453.898 543.189 458.108 541.438 461.53 537.935C465.038 534.432 466.793 530.229 466.793 525.326V510.483C466.793 507.243 466.003 504.266 464.424 501.552C462.845 498.749 460.652 496.56 457.845 494.984C455.126 493.408 452.143 492.62 448.898 492.62H413.634V485.396H448.898C453.898 485.396 458.108 483.688 461.53 480.273C465.038 476.77 466.793 472.567 466.793 467.664V390.956C466.793 386.053 465.038 381.893 461.53 378.478C458.108 374.975 453.898 373.224 448.898 373.224H397.055V384.52H389.818V366H448.898C455.828 366 461.749 368.452 466.661 373.356C471.573 378.259 474.03 384.126 474.03 390.956V467.664Z" fill="#F79267"/>
<path d="M650.164 499.581V542.532H658.453V549.625H650.164V550.15H642.927V549.625H634.769V542.532H642.927V499.581H650.164ZM650.164 485.527H664.374V492.751H577.926L574.374 488.811L583.453 373.356H575.558V366.263H599.242V373.356H590.69L581.742 485.527H642.927V373.356H634.769V366.263H658.453V373.356H650.164V485.527Z" fill="url(#paint2_linear_862_36153)"/>
<path d="M650.164 499.581V542.532H658.453V549.625H650.164V550.15H642.927V549.625H634.769V542.532H642.927V499.581H650.164ZM650.164 485.527H664.374V492.751H577.926L574.374 488.811L583.453 373.356H575.558V366.263H599.242V373.356H590.69L581.742 485.527H642.927V373.356H634.769V366.263H658.453V373.356H650.164V485.527Z" fill="#F79267"/>
<path d="M762.35 366.394H851.298V384.389H844.061V373.487H762.35V366.394ZM826.298 485.658C833.14 485.658 839.017 488.11 843.93 493.014C848.842 497.918 851.298 503.828 851.298 510.746V525.194C851.298 532.112 848.842 537.979 843.93 542.795C839.017 547.699 833.14 550.15 826.298 550.15H762.35V531.499H769.587V543.058H826.298C831.21 543.058 835.377 541.306 838.798 537.804C842.307 534.301 844.061 530.098 844.061 525.194V510.746C844.061 505.842 842.307 501.639 838.798 498.137C835.377 494.634 831.21 492.883 826.298 492.883H762.35V380.58H769.587V485.658H826.298Z" fill="url(#paint3_linear_862_36153)"/>
<path d="M762.35 366.394H851.298V384.389H844.061V373.487H762.35V366.394ZM826.298 485.658C833.14 485.658 839.017 488.11 843.93 493.014C848.842 497.918 851.298 503.828 851.298 510.746V525.194C851.298 532.112 848.842 537.979 843.93 542.795C839.017 547.699 833.14 550.15 826.298 550.15H762.35V531.499H769.587V543.058H826.298C831.21 543.058 835.377 541.306 838.798 537.804C842.307 534.301 844.061 530.098 844.061 525.194V510.746C844.061 505.842 842.307 501.639 838.798 498.137C835.377 494.634 831.21 492.883 826.298 492.883H762.35V380.58H769.587V485.658H826.298Z" fill="#F79267"/>
<path d="M1020.98 485.658C1025.9 485.658 1030.06 487.41 1033.48 490.912C1036.99 494.327 1038.75 498.487 1038.75 503.39V532.418C1038.75 535.658 1037.96 538.636 1036.38 541.35C1034.8 544.065 1032.65 546.21 1029.93 547.786C1027.21 549.362 1024.23 550.15 1020.98 550.15H967.563C962.651 550.15 958.44 548.399 954.932 544.897C951.511 541.481 949.8 537.322 949.8 532.418V391.35C949.8 384.433 952.212 378.566 957.037 373.75C961.949 368.846 967.87 366.394 974.8 366.394H1013.62C1020.55 366.394 1026.42 368.846 1031.25 373.75C1036.16 378.566 1038.62 384.433 1038.62 391.35H1031.51C1031.51 388.11 1030.72 385.133 1029.14 382.419C1027.56 379.704 1025.37 377.559 1022.56 375.982C1019.84 374.319 1016.86 373.487 1013.62 373.487H974.669C969.756 373.487 965.546 375.238 962.037 378.741C958.528 382.243 956.774 386.447 956.774 391.35V489.205C959.932 486.841 963.484 485.658 967.432 485.658H1020.98ZM1031.51 532.418H1031.64V503.39C1031.64 500.501 1030.59 498.049 1028.48 496.035C1026.47 493.933 1023.97 492.883 1020.98 492.883H967.432C964.537 492.883 962.037 493.933 959.932 496.035C957.826 498.049 956.774 500.501 956.774 503.39V532.418C956.774 535.308 957.826 537.804 959.932 539.905C962.037 542.007 964.537 543.058 967.432 543.058H1020.85C1022.34 543.058 1023.75 542.751 1025.06 542.138C1026.38 541.613 1027.48 540.869 1028.35 539.905C1029.32 538.942 1030.06 537.804 1030.59 536.49C1031.2 535.177 1031.51 533.819 1031.51 532.418Z" fill="url(#paint4_linear_862_36153)"/>
<path d="M1020.98 485.658C1025.9 485.658 1030.06 487.41 1033.48 490.912C1036.99 494.327 1038.75 498.487 1038.75 503.39V532.418C1038.75 535.658 1037.96 538.636 1036.38 541.35C1034.8 544.065 1032.65 546.21 1029.93 547.786C1027.21 549.362 1024.23 550.15 1020.98 550.15H967.563C962.651 550.15 958.44 548.399 954.932 544.897C951.511 541.481 949.8 537.322 949.8 532.418V391.35C949.8 384.433 952.212 378.566 957.037 373.75C961.949 368.846 967.87 366.394 974.8 366.394H1013.62C1020.55 366.394 1026.42 368.846 1031.25 373.75C1036.16 378.566 1038.62 384.433 1038.62 391.35H1031.51C1031.51 388.11 1030.72 385.133 1029.14 382.419C1027.56 379.704 1025.37 377.559 1022.56 375.982C1019.84 374.319 1016.86 373.487 1013.62 373.487H974.669C969.756 373.487 965.546 375.238 962.037 378.741C958.528 382.243 956.774 386.447 956.774 391.35V489.205C959.932 486.841 963.484 485.658 967.432 485.658H1020.98ZM1031.51 532.418H1031.64V503.39C1031.64 500.501 1030.59 498.049 1028.48 496.035C1026.47 493.933 1023.97 492.883 1020.98 492.883H967.432C964.537 492.883 962.037 493.933 959.932 496.035C957.826 498.049 956.774 500.501 956.774 503.39V532.418C956.774 535.308 957.826 537.804 959.932 539.905C962.037 542.007 964.537 543.058 967.432 543.058H1020.85C1022.34 543.058 1023.75 542.751 1025.06 542.138C1026.38 541.613 1027.48 540.869 1028.35 539.905C1029.32 538.942 1030.06 537.804 1030.59 536.49C1031.2 535.177 1031.51 533.819 1031.51 532.418Z" fill="#F79267"/>
<path d="M1225.67 370.991L1183.57 485.527H1222.38V492.751H1137.78V485.527H1176.07L1217.25 373.356H1137.78V366.263H1222.38L1225.67 370.991ZM1171.07 498.793H1178.7L1162.38 543.058H1169.62V550.15H1146.46V543.058H1154.75L1171.07 498.793Z" fill="url(#paint5_linear_862_36153)"/>
<path d="M1225.67 370.991L1183.57 485.527H1222.38V492.751H1137.78V485.527H1176.07L1217.25 373.356H1137.78V366.263H1222.38L1225.67 370.991ZM1171.07 498.793H1178.7L1162.38 543.058H1169.62V550.15H1146.46V543.058H1154.75L1171.07 498.793Z" fill="#F79267"/>
<path d="M1400.83 468.452C1400.83 472.217 1400 475.764 1398.33 479.091C1396.75 482.331 1394.56 485.089 1391.75 487.366C1394.47 488.855 1396.67 491 1398.33 493.802C1400.09 496.604 1400.96 499.625 1400.96 502.865V531.893C1400.96 535.133 1400.17 538.11 1398.6 540.825C1397.02 543.539 1394.87 545.685 1392.15 547.261C1389.43 548.837 1386.45 549.625 1383.2 549.625H1329.78C1324.87 549.625 1320.66 547.874 1317.15 544.371C1313.73 540.956 1312.02 536.797 1312.02 531.893V502.865C1312.02 500.676 1312.37 498.574 1313.07 496.56C1313.86 494.546 1314.95 492.751 1316.36 491.175C1317.76 489.599 1319.38 488.329 1321.23 487.366C1320.17 486.403 1319.17 485.396 1318.2 484.345C1317.24 483.294 1316.36 482.156 1315.57 480.93C1314.78 479.704 1314.12 478.434 1313.6 477.121C1313.07 475.807 1312.67 474.406 1312.41 472.918C1312.15 471.429 1312.02 469.94 1312.02 468.452V389.905C1312.02 385.527 1313.07 381.543 1315.17 377.953C1317.28 374.275 1320.17 371.385 1323.86 369.284C1327.54 367.095 1331.58 366 1335.96 366H1376.89C1380.13 366 1383.24 366.657 1386.23 367.97C1389.21 369.196 1391.75 370.86 1393.86 372.961C1395.96 375.063 1397.63 377.602 1398.86 380.58C1400.17 383.557 1400.83 386.665 1400.83 389.905V468.452ZM1393.73 502.865C1393.73 499.975 1392.67 497.524 1390.57 495.51C1388.55 493.408 1386.1 492.357 1383.2 492.357H1329.65C1326.75 492.357 1324.25 493.408 1322.15 495.51C1320.04 497.524 1318.99 499.975 1318.99 502.865V531.893C1318.99 534.783 1320.04 537.278 1322.15 539.38C1324.25 541.481 1326.75 542.532 1329.65 542.532H1383.07C1385 542.532 1386.75 542.051 1388.33 541.087C1390 540.124 1391.32 538.811 1392.28 537.147C1393.24 535.571 1393.73 533.819 1393.73 531.893V502.865ZM1376.89 485.133C1381.53 485.133 1385.48 483.513 1388.73 480.273C1392.06 477.033 1393.73 473.093 1393.73 468.452V389.905C1393.73 385.264 1392.06 381.324 1388.73 378.084C1385.48 374.757 1381.53 373.093 1376.89 373.093H1335.96C1333.68 373.093 1331.49 373.531 1329.38 374.406C1327.28 375.282 1325.48 376.508 1323.99 378.084C1322.5 379.573 1321.31 381.368 1320.44 383.469C1319.56 385.483 1319.12 387.629 1319.12 389.905V468.452C1319.12 473.093 1320.74 477.033 1323.99 480.273C1327.32 483.513 1331.31 485.133 1335.96 485.133H1376.89Z" fill="url(#paint6_linear_862_36153)"/>
<path d="M1400.83 468.452C1400.83 472.217 1400 475.764 1398.33 479.091C1396.75 482.331 1394.56 485.089 1391.75 487.366C1394.47 488.855 1396.67 491 1398.33 493.802C1400.09 496.604 1400.96 499.625 1400.96 502.865V531.893C1400.96 535.133 1400.17 538.11 1398.6 540.825C1397.02 543.539 1394.87 545.685 1392.15 547.261C1389.43 548.837 1386.45 549.625 1383.2 549.625H1329.78C1324.87 549.625 1320.66 547.874 1317.15 544.371C1313.73 540.956 1312.02 536.797 1312.02 531.893V502.865C1312.02 500.676 1312.37 498.574 1313.07 496.56C1313.86 494.546 1314.95 492.751 1316.36 491.175C1317.76 489.599 1319.38 488.329 1321.23 487.366C1320.17 486.403 1319.17 485.396 1318.2 484.345C1317.24 483.294 1316.36 482.156 1315.57 480.93C1314.78 479.704 1314.12 478.434 1313.6 477.121C1313.07 475.807 1312.67 474.406 1312.41 472.918C1312.15 471.429 1312.02 469.94 1312.02 468.452V389.905C1312.02 385.527 1313.07 381.543 1315.17 377.953C1317.28 374.275 1320.17 371.385 1323.86 369.284C1327.54 367.095 1331.58 366 1335.96 366H1376.89C1380.13 366 1383.24 366.657 1386.23 367.97C1389.21 369.196 1391.75 370.86 1393.86 372.961C1395.96 375.063 1397.63 377.602 1398.86 380.58C1400.17 383.557 1400.83 386.665 1400.83 389.905V468.452ZM1393.73 502.865C1393.73 499.975 1392.67 497.524 1390.57 495.51C1388.55 493.408 1386.1 492.357 1383.2 492.357H1329.65C1326.75 492.357 1324.25 493.408 1322.15 495.51C1320.04 497.524 1318.99 499.975 1318.99 502.865V531.893C1318.99 534.783 1320.04 537.278 1322.15 539.38C1324.25 541.481 1326.75 542.532 1329.65 542.532H1383.07C1385 542.532 1386.75 542.051 1388.33 541.087C1390 540.124 1391.32 538.811 1392.28 537.147C1393.24 535.571 1393.73 533.819 1393.73 531.893V502.865ZM1376.89 485.133C1381.53 485.133 1385.48 483.513 1388.73 480.273C1392.06 477.033 1393.73 473.093 1393.73 468.452V389.905C1393.73 385.264 1392.06 381.324 1388.73 378.084C1385.48 374.757 1381.53 373.093 1376.89 373.093H1335.96C1333.68 373.093 1331.49 373.531 1329.38 374.406C1327.28 375.282 1325.48 376.508 1323.99 378.084C1322.5 379.573 1321.31 381.368 1320.44 383.469C1319.56 385.483 1319.12 387.629 1319.12 389.905V468.452C1319.12 473.093 1320.74 477.033 1323.99 480.273C1327.32 483.513 1331.31 485.133 1335.96 485.133H1376.89Z" fill="#F79267"/>
<path d="M313.316 632.435C318.141 632.435 322.264 634.186 325.685 637.689C329.194 641.104 330.948 645.263 330.948 650.167V791.103C330.948 798.021 328.492 803.888 323.58 808.704C318.667 813.608 312.79 816.06 305.948 816.06H269.763C268.009 816.06 266.079 815.797 263.974 815.272C261.956 814.834 260.026 814.177 258.184 813.301C256.43 812.513 254.763 811.681 253.184 810.806C251.605 810.018 250.114 809.142 248.711 808.179C247.395 807.303 246.43 806.646 245.816 806.209C245.289 805.858 244.851 805.552 244.5 805.289L248.974 799.641C251.518 801.655 254.807 803.713 258.842 805.814C262.877 807.916 266.518 808.967 269.763 808.967H306.079C308.448 808.967 310.729 808.485 312.922 807.522C315.202 806.559 317.132 805.289 318.711 803.713C320.29 802.137 321.518 800.254 322.395 798.065C323.36 795.876 323.843 793.555 323.843 791.103V755.114C320.772 757.566 317.264 758.792 313.316 758.792H259.763C254.851 758.792 250.64 757.04 247.132 753.538C243.71 750.035 242 745.876 242 741.06V650.167C242 645.263 243.71 641.104 247.132 637.689C250.64 634.186 254.807 632.435 259.632 632.435H313.316ZM323.711 741.06H323.843V650.167C323.843 648.24 323.36 646.489 322.395 644.913C321.518 643.249 320.246 641.935 318.579 640.972C317 640.009 315.246 639.527 313.316 639.527H259.632C256.737 639.527 254.237 640.578 252.132 642.68C250.114 644.781 249.105 647.277 249.105 650.167V741.06C249.105 743.949 250.114 746.445 252.132 748.547C254.237 750.561 256.737 751.568 259.632 751.568H313.185C316.079 751.568 318.536 750.561 320.553 748.547C322.659 746.445 323.711 743.949 323.711 741.06Z" fill="url(#paint7_linear_862_36153)"/>
<path d="M313.316 632.435C318.141 632.435 322.264 634.186 325.685 637.689C329.194 641.104 330.948 645.263 330.948 650.167V791.103C330.948 798.021 328.492 803.888 323.58 808.704C318.667 813.608 312.79 816.06 305.948 816.06H269.763C268.009 816.06 266.079 815.797 263.974 815.272C261.956 814.834 260.026 814.177 258.184 813.301C256.43 812.513 254.763 811.681 253.184 810.806C251.605 810.018 250.114 809.142 248.711 808.179C247.395 807.303 246.43 806.646 245.816 806.209C245.289 805.858 244.851 805.552 244.5 805.289L248.974 799.641C251.518 801.655 254.807 803.713 258.842 805.814C262.877 807.916 266.518 808.967 269.763 808.967H306.079C308.448 808.967 310.729 808.485 312.922 807.522C315.202 806.559 317.132 805.289 318.711 803.713C320.29 802.137 321.518 800.254 322.395 798.065C323.36 795.876 323.843 793.555 323.843 791.103V755.114C320.772 757.566 317.264 758.792 313.316 758.792H259.763C254.851 758.792 250.64 757.04 247.132 753.538C243.71 750.035 242 745.876 242 741.06V650.167C242 645.263 243.71 641.104 247.132 637.689C250.64 634.186 254.807 632.435 259.632 632.435H313.316ZM323.711 741.06H323.843V650.167C323.843 648.24 323.36 646.489 322.395 644.913C321.518 643.249 320.246 641.935 318.579 640.972C317 640.009 315.246 639.527 313.316 639.527H259.632C256.737 639.527 254.237 640.578 252.132 642.68C250.114 644.781 249.105 647.277 249.105 650.167V741.06C249.105 743.949 250.114 746.445 252.132 748.547C254.237 750.561 256.737 751.568 259.632 751.568H313.185C316.079 751.568 318.536 750.561 320.553 748.547C322.659 746.445 323.711 743.949 323.711 741.06Z" fill="#F79267"/>
<path d="M459.476 809.098H478.556V816.191H432.503V809.098H452.371V639.396H439.74V632.303H459.476V809.098Z" fill="url(#paint8_linear_862_36153)"/>
<path d="M459.476 809.098H478.556V816.191H432.503V809.098H452.371V639.396H439.74V632.303H459.476V809.098Z" fill="#F79267"/>
<path d="M567.334 816.454H528.387C521.457 816.454 515.536 814.002 510.623 809.098C505.799 804.195 503.387 798.328 503.387 791.498V658.048C503.387 651.13 505.799 645.219 510.623 640.315C515.536 635.412 521.457 632.96 528.387 632.96H567.334C574.264 632.96 580.141 635.412 584.966 640.315C589.878 645.219 592.334 651.13 592.334 658.048V791.498C592.334 798.328 589.878 804.195 584.966 809.098C580.054 814.002 574.177 816.454 567.334 816.454ZM528.387 640.184C523.474 640.184 519.264 641.935 515.755 645.438C512.246 648.853 510.492 653.056 510.492 658.048V791.498C510.492 796.401 512.246 800.561 515.755 803.976C519.264 807.478 523.474 809.23 528.387 809.23H567.334C572.247 809.23 576.457 807.478 579.966 803.976C583.475 800.561 585.229 796.401 585.229 791.498V658.048C585.229 653.056 583.475 648.853 579.966 645.438C576.457 641.935 572.247 640.184 567.334 640.184H528.387ZM532.597 801.48H525.097L563.782 647.934H571.15L532.597 801.48Z" fill="url(#paint9_linear_862_36153)"/>
<path d="M567.334 816.454H528.387C521.457 816.454 515.536 814.002 510.623 809.098C505.799 804.195 503.387 798.328 503.387 791.498V658.048C503.387 651.13 505.799 645.219 510.623 640.315C515.536 635.412 521.457 632.96 528.387 632.96H567.334C574.264 632.96 580.141 635.412 584.966 640.315C589.878 645.219 592.334 651.13 592.334 658.048V791.498C592.334 798.328 589.878 804.195 584.966 809.098C580.054 814.002 574.177 816.454 567.334 816.454ZM528.387 640.184C523.474 640.184 519.264 641.935 515.755 645.438C512.246 648.853 510.492 653.056 510.492 658.048V791.498C510.492 796.401 512.246 800.561 515.755 803.976C519.264 807.478 523.474 809.23 528.387 809.23H567.334C572.247 809.23 576.457 807.478 579.966 803.976C583.475 800.561 585.229 796.401 585.229 791.498V658.048C585.229 653.056 583.475 648.853 579.966 645.438C576.457 641.935 572.247 640.184 567.334 640.184H528.387ZM532.597 801.48H525.097L563.782 647.934H571.15L532.597 801.48Z" fill="#F79267"/>
<path d="M782.548 632.435V639.659H774.127V771.401C774.127 783.66 769.784 794.124 761.1 802.793C752.504 811.55 742.065 815.928 729.784 815.928C717.503 815.928 707.021 811.55 698.337 802.793C689.74 794.124 685.442 783.66 685.442 771.401V766.279H677.021V759.054H700.837V766.279H692.416V771.401C692.416 781.646 696.056 790.403 703.337 797.671C710.705 805.026 719.521 808.704 729.784 808.704C740.047 808.704 748.82 805.026 756.1 797.671C763.469 790.403 767.153 781.646 767.153 771.401V639.659H758.732V632.435H782.548Z" fill="url(#paint10_linear_862_36153)"/>
<path d="M782.548 632.435V639.659H774.127V771.401C774.127 783.66 769.784 794.124 761.1 802.793C752.504 811.55 742.065 815.928 729.784 815.928C717.503 815.928 707.021 811.55 698.337 802.793C689.74 794.124 685.442 783.66 685.442 771.401V766.279H677.021V759.054H700.837V766.279H692.416V771.401C692.416 781.646 696.056 790.403 703.337 797.671C710.705 805.026 719.521 808.704 729.784 808.704C740.047 808.704 748.82 805.026 756.1 797.671C763.469 790.403 767.153 781.646 767.153 771.401V639.659H758.732V632.435H782.548Z" fill="#F79267"/>
<path d="M943.344 632.303C949.659 632.303 955.054 634.536 959.528 639.002C964.002 643.38 966.239 648.722 966.239 655.027V793.862C966.239 798.415 964.967 802.531 962.423 806.209C959.967 809.886 956.721 812.645 952.686 814.483L946.502 809.886C950.273 809.098 953.388 807.216 955.844 804.238C958.388 801.261 959.66 797.802 959.66 793.862V655.027C959.66 650.473 958.081 646.664 954.923 643.599C951.765 640.447 947.905 638.871 943.344 638.871H888.606C884.045 638.871 880.185 640.447 877.027 643.599C873.869 646.664 872.29 650.473 872.29 655.027V793.862C872.29 798.415 873.869 802.224 877.027 805.289C880.185 808.441 884.045 810.018 888.606 810.018H925.449L912.159 799.51L916.106 794.256L958.87 828.012L954.791 833.266L933.738 816.454H888.606C882.29 816.454 876.896 814.265 872.422 809.886C867.948 805.508 865.711 800.166 865.711 793.862V655.027C865.711 648.722 867.948 643.38 872.422 639.002C876.896 634.536 882.29 632.303 888.606 632.303H943.344Z" fill="url(#paint11_linear_862_36153)"/>
<path d="M943.344 632.303C949.659 632.303 955.054 634.536 959.528 639.002C964.002 643.38 966.239 648.722 966.239 655.027V793.862C966.239 798.415 964.967 802.531 962.423 806.209C959.967 809.886 956.721 812.645 952.686 814.483L946.502 809.886C950.273 809.098 953.388 807.216 955.844 804.238C958.388 801.261 959.66 797.802 959.66 793.862V655.027C959.66 650.473 958.081 646.664 954.923 643.599C951.765 640.447 947.905 638.871 943.344 638.871H888.606C884.045 638.871 880.185 640.447 877.027 643.599C873.869 646.664 872.29 650.473 872.29 655.027V793.862C872.29 798.415 873.869 802.224 877.027 805.289C880.185 808.441 884.045 810.018 888.606 810.018H925.449L912.159 799.51L916.106 794.256L958.87 828.012L954.791 833.266L933.738 816.454H888.606C882.29 816.454 876.896 814.265 872.422 809.886C867.948 805.508 865.711 800.166 865.711 793.862V655.027C865.711 648.722 867.948 643.38 872.422 639.002C876.896 634.536 882.29 632.303 888.606 632.303H943.344Z" fill="#F79267"/>
<path d="M1072.27 753.669V808.835H1081.88V816.06H1057.93V808.835H1065.17V639.659H1057.93V632.435H1081.88V639.659H1072.27V741.06L1142.67 639.659H1135.69V632.435H1159.24V639.659H1151.35L1072.27 753.669ZM1154.51 808.835H1162.4V816.06H1138.46V808.835H1145.43L1091.09 738.17L1095.43 731.865L1154.51 808.835Z" fill="url(#paint12_linear_862_36153)"/>
<path d="M1072.27 753.669V808.835H1081.88V816.06H1057.93V808.835H1065.17V639.659H1057.93V632.435H1081.88V639.659H1072.27V741.06L1142.67 639.659H1135.69V632.435H1159.24V639.659H1151.35L1072.27 753.669ZM1154.51 808.835H1162.4V816.06H1138.46V808.835H1145.43L1091.09 738.17L1095.43 731.865L1154.51 808.835Z" fill="#F79267"/>
<path d="M1353.48 758.923H1259.92V758.529L1244.53 808.967H1252.55V816.191H1228.74V808.967H1236.9L1288.74 639.527H1282.16V632.303H1305.84V639.527H1299.4L1333.47 751.699H1353.48V758.923ZM1262.16 751.699H1325.84L1294 646.489L1262.16 751.699ZM1350.98 808.967H1358.87V816.191H1335.05V808.967H1343.48L1330.45 765.885H1337.82L1350.98 808.967Z" fill="url(#paint13_linear_862_36153)"/>
<path d="M1353.48 758.923H1259.92V758.529L1244.53 808.967H1252.55V816.191H1228.74V808.967H1236.9L1288.74 639.527H1282.16V632.303H1305.84V639.527H1299.4L1333.47 751.699H1353.48V758.923ZM1262.16 751.699H1325.84L1294 646.489L1262.16 751.699ZM1350.98 808.967H1358.87V816.191H1335.05V808.967H1343.48L1330.45 765.885H1337.82L1350.98 808.967Z" fill="#F79267"/>
</g>
<defs>
<linearGradient id="paint0_linear_862_36153" x1="3044.21" y1="651.731" x2="2341.96" y2="-752.847" gradientUnits="userSpaceOnUse">
<stop stop-color="#815735"/>
<stop offset="0.64278" stop-color="#FFAD6A"/>
<stop offset="1" stop-color="#8A5F3C"/>
</linearGradient>
<linearGradient id="paint1_linear_862_36153" x1="3044.21" y1="651.731" x2="2341.96" y2="-752.847" gradientUnits="userSpaceOnUse">
<stop stop-color="#815735"/>
<stop offset="0.64278" stop-color="#FFAD6A"/>
<stop offset="1" stop-color="#8A5F3C"/>
</linearGradient>
<linearGradient id="paint2_linear_862_36153" x1="3044.21" y1="651.731" x2="2341.96" y2="-752.847" gradientUnits="userSpaceOnUse">
<stop stop-color="#815735"/>
<stop offset="0.64278" stop-color="#FFAD6A"/>
<stop offset="1" stop-color="#8A5F3C"/>
</linearGradient>
<linearGradient id="paint3_linear_862_36153" x1="3044.21" y1="651.731" x2="2341.96" y2="-752.847" gradientUnits="userSpaceOnUse">
<stop stop-color="#815735"/>
<stop offset="0.64278" stop-color="#FFAD6A"/>
<stop offset="1" stop-color="#8A5F3C"/>
</linearGradient>
<linearGradient id="paint4_linear_862_36153" x1="3044.21" y1="651.731" x2="2341.96" y2="-752.847" gradientUnits="userSpaceOnUse">
<stop stop-color="#815735"/>
<stop offset="0.64278" stop-color="#FFAD6A"/>
<stop offset="1" stop-color="#8A5F3C"/>
</linearGradient>
<linearGradient id="paint5_linear_862_36153" x1="3044.21" y1="651.731" x2="2341.96" y2="-752.847" gradientUnits="userSpaceOnUse">
<stop stop-color="#815735"/>
<stop offset="0.64278" stop-color="#FFAD6A"/>
<stop offset="1" stop-color="#8A5F3C"/>
</linearGradient>
<linearGradient id="paint6_linear_862_36153" x1="2602.38" y1="651.337" x2="1836.91" y2="-656.223" gradientUnits="userSpaceOnUse">
<stop stop-color="#815735"/>
<stop offset="0.64278" stop-color="#FFAD6A"/>
<stop offset="1" stop-color="#8A5F3C"/>
</linearGradient>
<linearGradient id="paint7_linear_862_36153" x1="1358.92" y1="917.772" x2="593.444" y2="-389.789" gradientUnits="userSpaceOnUse">
<stop stop-color="#815735"/>
<stop offset="0.64278" stop-color="#FFAD6A"/>
<stop offset="1" stop-color="#8A5F3C"/>
</linearGradient>
<linearGradient id="paint8_linear_862_36153" x1="1358.92" y1="917.772" x2="593.444" y2="-389.789" gradientUnits="userSpaceOnUse">
<stop stop-color="#815735"/>
<stop offset="0.64278" stop-color="#FFAD6A"/>
<stop offset="1" stop-color="#8A5F3C"/>
</linearGradient>
<linearGradient id="paint9_linear_862_36153" x1="1358.92" y1="917.772" x2="593.444" y2="-389.789" gradientUnits="userSpaceOnUse">
<stop stop-color="#815735"/>
<stop offset="0.64278" stop-color="#FFAD6A"/>
<stop offset="1" stop-color="#8A5F3C"/>
</linearGradient>
<linearGradient id="paint10_linear_862_36153" x1="1358.92" y1="917.772" x2="593.444" y2="-389.789" gradientUnits="userSpaceOnUse">
<stop stop-color="#815735"/>
<stop offset="0.64278" stop-color="#FFAD6A"/>
<stop offset="1" stop-color="#8A5F3C"/>
</linearGradient>
<linearGradient id="paint11_linear_862_36153" x1="1358.92" y1="917.772" x2="593.444" y2="-389.789" gradientUnits="userSpaceOnUse">
<stop stop-color="#815735"/>
<stop offset="0.64278" stop-color="#FFAD6A"/>
<stop offset="1" stop-color="#8A5F3C"/>
</linearGradient>
<linearGradient id="paint12_linear_862_36153" x1="1358.92" y1="917.772" x2="593.444" y2="-389.789" gradientUnits="userSpaceOnUse">
<stop stop-color="#815735"/>
<stop offset="0.64278" stop-color="#FFAD6A"/>
<stop offset="1" stop-color="#8A5F3C"/>
</linearGradient>
<linearGradient id="paint13_linear_862_36153" x1="1358.92" y1="917.772" x2="593.444" y2="-389.789" gradientUnits="userSpaceOnUse">
<stop stop-color="#815735"/>
<stop offset="0.64278" stop-color="#FFAD6A"/>
<stop offset="1" stop-color="#8A5F3C"/>
</linearGradient>
<clipPath id="clip0_862_36153">
<rect width="1600" height="1200" fill="white"/>
</clipPath>
</defs>
</svg>
