<svg width="1200" height="800" viewBox="0 0 1200 800" fill="none" xmlns="http://www.w3.org/2000/svg">
<rect width="1200" height="800" fill="#F1F9E8"/>
<path d="M849 603.5C849 575.069 843.4 546.916 832.52 520.649C821.64 494.382 805.693 470.515 785.589 450.411C765.485 430.307 741.618 414.36 715.351 403.48C689.084 392.6 660.931 387 632.5 387L632.5 603.5H849Z" fill="#7C505E"/>
<rect x="451" y="143" width="148" height="460" fill="#0FB267"/>
<circle cx="556.5" cy="442.5" r="227.5" fill="#A5D362"/>
<path d="M556.5 215C571.025 215 585.232 216.361 599 218.963V603H451V240.89C482.534 224.355 518.424 215 556.5 215Z" fill="#0B7C6B"/>
<path d="M849 143C846.001 261.172 751.028 356.482 633 360C635.999 241.828 730.973 146.519 849 143Z" fill="#F78D12"/>
<path d="M668.728 244.563C701.879 263.4 729.833 290.326 749.908 322.655C716.274 345.139 676.18 358.713 633 360C634.079 317.494 647.057 277.946 668.728 244.563Z" fill="#E15A2D"/>
<path d="M632.5 387C660.931 387 689.084 392.6 715.351 403.48C740.892 414.06 764.164 429.431 783.914 448.756C782.283 509.16 757.109 563.69 717.233 603.5H632.5V387Z" fill="#4E301B"/>
</svg>
