<?xml version="1.0" encoding="UTF-8"?>
<svg id="Layer_1" xmlns="http://www.w3.org/2000/svg" xmlns:xlink="http://www.w3.org/1999/xlink" version="1.1" viewBox="0 0 600 500">
  <!-- Generator: Adobe Illustrator 29.6.1, SVG Export Plug-In . SVG Version: 2.1.1 Build 9)  -->
  <defs>
    <style>
      .st0 {
        fill: none;
      }

      .st1 {
        fill: #414042;
      }

      .st2 {
        fill: #b03535;
      }

      .st3 {
        clip-path: url(#clippath);
      }

      .st4 {
        fill: #efcc8f;
      }
    </style>
    <clipPath id="clippath">
      <path class="st0" d="M300,178.02c-24.67,0-46.28,1.78-63.55,4.73v95.06c0,16.75,8.85,32,24.17,39.16l39.37,18.4,39.37-18.4c15.33-7.16,24.17-22.41,24.17-39.16v-95.06c-17.26-2.95-38.88-4.73-63.55-4.73Z"/>
    </clipPath>
  </defs>
  <rect class="st2" y="0" width="602" height="502"/>
  <g>
    <g>
      <circle class="st1" cx="300" cy="250" r="191.45"/>
      <path class="st4" d="M300,444c-26.19,0-51.6-5.13-75.51-15.25-23.1-9.77-43.85-23.76-61.66-41.57-17.82-17.82-31.8-38.56-41.57-61.66-10.12-23.92-15.25-49.33-15.25-75.51s5.13-51.6,15.25-75.51c9.77-23.1,23.76-43.85,41.57-61.66,17.82-17.82,38.56-31.8,61.66-41.57,23.92-10.12,49.33-15.25,75.51-15.25s51.6,5.13,75.51,15.25c23.1,9.77,43.85,23.76,61.66,41.57,17.82,17.82,31.8,38.56,41.57,61.66,10.12,23.92,15.25,49.33,15.25,75.51s-5.13,51.6-15.25,75.51c-9.77,23.1-23.76,43.85-41.57,61.66-17.82,17.82-38.56,31.8-61.66,41.57-23.92,10.12-49.33,15.25-75.51,15.25ZM300,61.09c-25.5,0-50.24,4.99-73.53,14.84-22.49,9.51-42.7,23.14-60.05,40.49-17.35,17.35-30.97,37.55-40.49,60.05-9.85,23.29-14.84,48.03-14.84,73.53s4.99,50.24,14.84,73.53c9.51,22.49,23.14,42.7,40.49,60.05,17.35,17.35,37.55,30.97,60.05,40.49,23.29,9.85,48.03,14.84,73.53,14.84s50.24-4.99,73.53-14.84c22.5-9.51,42.7-23.14,60.05-40.49,17.35-17.35,30.97-37.55,40.49-60.05,9.85-23.29,14.84-48.03,14.84-73.53s-4.99-50.24-14.84-73.53c-9.51-22.49-23.14-42.7-40.49-60.05-17.35-17.35-37.55-30.97-60.05-40.49-23.29-9.85-48.03-14.84-73.53-14.84Z"/>
    </g>
    <g>
      <path class="st4" d="M180.89,368.96l-4.5,4.06-10.88-12.07,4.5-4.06,2.31,2.56-2.32,2.09,1.83,2.03,11.72-10.56-1.75-1.94,2.18-1.97,6.1,6.77-2.18,1.97-1.75-1.94-11.72,10.56,1.83,2.03,2.32-2.09,2.31,2.56Z"/>
      <path class="st4" d="M174.68,337.43l-2.52,1.51-1.19-1.98-13.53,8.11,1.19,1.98-2.52,1.51-4.38-7.3,2.52-1.51,1.19,1.98,4.68-2.81-3.98-6.64-4.68,2.81,1.19,1.98-2.52,1.51-4.38-7.3,2.52-1.51,1.19,1.98,13.53-8.12-1.19-1.98,2.52-1.51,4.38,7.3-2.52,1.51-1.19-1.98-5.92,3.55,3.98,6.64,5.92-3.55-1.19-1.98,2.52-1.51,4.38,7.3Z"/>
      <path class="st4" d="M159.71,310.07l-2.77,1-.78-2.17-14.84,5.35.78,2.17-2.77,1-5.65-15.69,5.39-1.94,1.17,3.24-2.62.94,2.38,6.6,5.14-1.85-2.04-5.67,3.22-1.16,2.04,5.67,6.49-2.34-2.38-6.6-3.33,1.2-1.17-3.25,6.1-2.19,5.65,15.69Z"/>
      <path class="st4" d="M140.91,262.76c1.45-.25,2.6-.86,3.46-1.83.86-.97,1.25-2.18,1.18-3.61-.04-.88-.39-1.63-1.04-2.25-.65-.62-1.41-.91-2.29-.87-1.1.05-1.84.39-2.23,1.01s-.75,1.71-1.08,3.26c-.16.79-.29,1.39-.4,1.79-.02.08-.04.19-.07.33-.11.59-.26,1.16-.43,1.72-.17.56-.48,1.14-.91,1.75-.43.61-1.04,1.14-1.83,1.57-.79.44-1.77.68-2.95.74-.56.03-1.18-.07-1.88-.29-.69-.22-1.36-.58-2.02-1.08-.65-.5-1.2-1.18-1.64-2.04-.44-.86-.69-1.88-.74-3.06-.04-.82.08-1.62.37-2.4.28-.78.7-1.49,1.25-2.12l-1.35.06-.15-3.15,6.47-.31.14,3c-1.17.3-2.08.83-2.75,1.6-.72.83-1.05,1.83-1,2.99.04.9.34,1.62.88,2.15.55.53,1.28.78,2.2.74.78-.04,1.34-.42,1.69-1.16.35-.74.69-1.88,1.04-3.44.15-.67.26-1.14.32-1.43.24-.95.47-1.74.71-2.38.24-.63.59-1.23,1.04-1.79.45-.56,1.05-1.02,1.8-1.36.74-.35,1.68-.54,2.79-.6,1-.05,1.92.08,2.76.38.85.3,1.58.75,2.19,1.34.62.59,1.11,1.3,1.47,2.12s.56,1.73.61,2.7c.1,2.12-.42,3.94-1.57,5.48l1.35-.06.15,3.15-7.4.35-.14-3.03Z"/>
      <path class="st4" d="M148.18,238.42l-2.91-.39.31-2.29-15.63-2.11-.31,2.29-2.91-.39,2.23-16.53,5.68.77-.46,3.42-2.76-.37-.94,6.95,5.41.73.81-5.97,3.39.46-.81,5.97,6.84.92.94-6.95-3.51-.47.46-3.42,6.42.87-2.23,16.53Z"/>
      <path class="st4" d="M152.72,211.25l-2.78-.95.57-1.67-13.18-10.21-.77,2.24-2.78-.95,3.61-10.59,2.78.95-.76,2.21,16.63.13.53-1.56,2.78.95-2.58,7.55-2.78-.95.77-2.24-4.48.02-2.12,6.22,3.53,2.76.76-2.21,2.78.95-2.51,7.35ZM147.27,195.95l-7.71-.07-.02.06,6.12,4.72,1.61-4.71Z"/>
      <path class="st4" d="M164.19,181.78l-2.55-1.46,1.2-2.11-13.7-7.82-1.2,2.11-2.55-1.46,4.45-7.79,2.55,1.46-1.31,2.29,13.7,7.82,2.56-4.48-3.02-1.72,1.71-3,5.57,3.18-7.4,12.97Z"/>
      <path class="st4" d="M193.45,141.33c-1.52.49-2.98.65-4.41.47-1.42-.18-2.75-.6-3.99-1.28-1.24-.67-2.31-1.51-3.23-2.51-1.04-1.14-1.81-2.41-2.32-3.81-.51-1.4-.74-2.84-.68-4.31.05-1.47.4-2.89,1.03-4.25.64-1.36,1.54-2.59,2.73-3.66,1.18-1.08,2.48-1.87,3.91-2.39,1.42-.51,2.87-.74,4.33-.66,1.46.07,2.87.43,4.22,1.06,1.35.63,2.55,1.53,3.6,2.68s1.82,2.44,2.31,3.86c.49,1.42.69,2.87.61,4.34-.08,1.47-.44,2.88-1.09,4.24-.64,1.36-1.53,2.55-2.65,3.57-1.4,1.28-2.86,2.17-4.38,2.66ZM183.18,127.14c-.43.94-.63,1.91-.62,2.9.01.99.23,1.97.65,2.94.42.97,1.02,1.87,1.79,2.71.67.74,1.44,1.31,2.31,1.71.87.4,1.77.62,2.72.67.95.04,1.87-.09,2.77-.41.9-.32,1.72-.82,2.46-1.49.81-.74,1.43-1.58,1.86-2.51.42-.93.66-1.89.69-2.89.04-1-.13-1.98-.49-2.94-.37-.96-.91-1.85-1.64-2.64-.69-.75-1.48-1.35-2.38-1.79-.9-.44-1.83-.69-2.8-.75-.97-.07-1.91.06-2.84.38-.93.32-1.78.83-2.54,1.53-.86.78-1.5,1.64-1.92,2.59Z"/>
      <path class="st4" d="M215.28,124.09l-1.5-2.53,1.99-1.18-8.06-13.56-1.99,1.18-1.5-2.53,14.54-8.64,2.92,4.93-2.97,1.76-1.42-2.4-6.24,3.71,2.79,4.69,5.6-3.32,1.75,2.94-5.6,3.32,3.52,5.93,2.19-1.3,1.5,2.53-7.53,4.47Z"/>
      <path class="st4" d="M256.11,104.74l-.67-2.86,2.25-.53-3.61-15.36-2.25.53-.67-2.86,9.05-2.13c1.5-.35,2.69-.51,3.59-.47.63.04,1.23.16,1.81.36.58.2,1.14.53,1.68.98.51.41.88.85,1.11,1.31.23.46.4.9.5,1.33.28,1.21.25,2.25-.11,3.14-.36.89-1.04,1.69-2.06,2.43v.06c.61,0,1.11.09,1.52.25.41.16.73.37.98.62.24.25.43.53.57.84.13.31.25.66.34,1.04l1.12,4.76,2.04-.48.67,2.86-5.84,1.37-1.74-7.39c-.11-.47-.31-.82-.61-1.07-.29-.25-.64-.4-1.03-.47-.39-.06-.8-.07-1.22-.02-.42.05-.86.13-1.33.24l-2.28.54,1.58,6.71,2.34-.55.67,2.86-8.38,1.97ZM259.22,90.88l2.45-.58c.6-.14,1.13-.31,1.59-.5.46-.19.86-.44,1.21-.75.35-.31.58-.7.71-1.18.12-.48.1-1.06-.06-1.74-.15-.62-.4-1.08-.77-1.37-.37-.29-.79-.47-1.26-.52-.47-.05-.95-.04-1.44.03-.49.07-1.08.19-1.78.36l-2.01.47,1.36,5.78Z"/>
      <path class="st4" d="M284.93,99l-.09-2.94,2.31-.07-.51-15.77-2.31.07-.09-2.94,8.51-.27.09,2.94-2.31.07.18,5.46,7.73-.25-.18-5.46-2.31.07-.09-2.94,8.51-.27.09,2.94-2.31.07.51,15.77,2.31-.07.09,2.94-8.51.27-.09-2.94,2.31-.07-.22-6.89-7.73.25.22,6.89,2.31-.07.09,2.94-8.51.27Z"/>
      <path class="st4" d="M322.7,99.68c-1.31-.91-2.32-1.98-3.04-3.22-.72-1.24-1.18-2.55-1.4-3.95-.21-1.39-.2-2.75.05-4.09.28-1.51.82-2.9,1.63-4.15.81-1.25,1.81-2.31,3.02-3.15,1.2-.85,2.54-1.43,4.01-1.75,1.47-.32,2.99-.34,4.57-.05,1.57.29,3,.84,4.27,1.67,1.27.82,2.32,1.84,3.15,3.05.83,1.21,1.39,2.54,1.71,4s.33,2.96.05,4.49c-.28,1.53-.84,2.93-1.68,4.17-.84,1.25-1.87,2.29-3.08,3.11-1.22.82-2.56,1.39-4.03,1.7-1.47.31-2.95.33-4.45.05-1.87-.34-3.46-.97-4.76-1.88ZM327.78,82.91c-1.01.23-1.9.65-2.69,1.26-.78.61-1.43,1.37-1.95,2.3-.51.92-.87,1.94-1.08,3.06-.18.98-.17,1.94.04,2.87.21.93.58,1.79,1.12,2.57.54.78,1.21,1.43,2.01,1.95.8.52,1.69.87,2.67,1.05,1.08.2,2.12.19,3.12-.04,1-.22,1.9-.62,2.72-1.19.82-.57,1.5-1.3,2.04-2.17.55-.88.92-1.84,1.11-2.91.18-1,.18-2-.02-2.98-.2-.98-.56-1.88-1.09-2.69-.53-.81-1.21-1.49-2.02-2.03-.81-.55-1.73-.91-2.76-1.1-1.14-.21-2.22-.2-3.22.04Z"/>
      <path class="st4" d="M358.97,90.16l-2.13-.89,1.14-2.71,7.11,2.98c1.01.43,1.89.87,2.62,1.33.73.46,1.33.91,1.81,1.35.48.44.84.83,1.1,1.18.26.35.51.71.76,1.1.08.16.15.28.21.35.19.27.4.71.62,1.3.23.59.41,1.32.55,2.18.14.86.16,1.82.06,2.89-.1,1.06-.38,2.15-.85,3.26-.36.87-.83,1.64-1.4,2.32-.57.68-1.16,1.25-1.76,1.72-.61.46-1.16.82-1.68,1.09-.51.26-.9.42-1.16.49-.83.22-1.55.38-2.18.5-.62.12-1.29.17-1.99.16-.7-.01-1.48-.12-2.35-.32-.87-.2-1.85-.53-2.94-.99l-6.91-2.9,1.14-2.71,2.13.89,6.11-14.55ZM356.44,106.27l2.02.85c1.2.5,2.33.73,3.4.7,1.07-.04,2.03-.29,2.87-.76.85-.47,1.59-1.08,2.22-1.85.63-.76,1.15-1.62,1.54-2.56.36-.87.59-1.77.69-2.72.09-.95,0-1.89-.26-2.84-.26-.95-.77-1.83-1.53-2.64-.75-.81-1.78-1.5-3.09-2.05l-1.74-.73-6.13,14.6Z"/>
      <path class="st4" d="M377.81,119.72l1.64-2.44,1.92,1.29,8.8-13.09-1.92-1.29,1.64-2.44,13.84,9.3-3.2,4.75-2.86-1.92,1.56-2.31-5.82-3.92-3.05,4.53,5,3.36-1.91,2.84-5-3.36-3.85,5.72,5.82,3.92,1.97-2.94,2.86,1.92-3.61,5.38-13.84-9.3Z"/>
      <path class="st4" d="M408.34,133.55c-.89,1.17-1.32,2.4-1.28,3.69.04,1.29.57,2.44,1.6,3.45.63.62,1.39.93,2.29.94.9.01,1.65-.3,2.27-.93.77-.79,1.09-1.54.95-2.26-.14-.72-.61-1.76-1.43-3.12-.42-.69-.73-1.22-.93-1.58-.04-.07-.1-.17-.17-.3-.32-.51-.6-1.02-.86-1.55-.25-.53-.43-1.16-.53-1.9-.1-.74,0-1.54.27-2.4.28-.86.83-1.71,1.66-2.55.39-.4.91-.76,1.57-1.07.65-.31,1.39-.51,2.21-.59.82-.08,1.68.05,2.59.37.91.33,1.78.91,2.63,1.73.59.57,1.04,1.24,1.37,2.01.33.77.5,1.57.52,2.4l.94-.96,2.25,2.2-4.53,4.63-2.14-2.1c.65-1.01.96-2.03.92-3.04-.04-1.1-.48-2.06-1.3-2.87-.64-.63-1.35-.95-2.11-.97-.76-.02-1.47.3-2.11.96-.55.56-.69,1.22-.44,2,.25.77.78,1.85,1.58,3.23.35.59.59,1.01.73,1.26.48.86.84,1.6,1.1,2.23.25.63.41,1.3.46,2.02.05.72-.08,1.46-.39,2.22-.31.76-.86,1.54-1.64,2.34-.7.71-1.46,1.25-2.28,1.61-.82.36-1.66.53-2.52.52-.86-.01-1.7-.2-2.52-.56-.82-.36-1.59-.88-2.29-1.57-1.52-1.48-2.38-3.18-2.58-5.08l-.94.96-2.25-2.2,5.18-5.3,2.17,2.12Z"/>
      <path class="st4" d="M450.51,178.63c.9-.79,1.41-1.86,1.53-3.21.14-1.25-.1-2.44-.7-3.59-.51-.97-1.15-1.76-1.92-2.36-.77-.6-1.61-1.01-2.53-1.21-.92-.21-1.87-.23-2.84-.08-.97.15-1.92.47-2.84.95-.92.48-1.72,1.08-2.4,1.79-.68.71-1.2,1.5-1.55,2.37-.35.87-.5,1.8-.44,2.77.06.97.35,1.96.87,2.95.71,1.34,1.59,2.28,2.66,2.8,1.07.52,2.34.77,3.81.74l1.67,3.19c-2.52.62-4.75.48-6.7-.44-1.95-.92-3.49-2.46-4.63-4.62-.72-1.36-1.13-2.77-1.25-4.22-.12-1.45.05-2.86.52-4.24.46-1.37,1.18-2.63,2.15-3.77.97-1.14,2.16-2.08,3.58-2.83,1.63-.86,3.21-1.33,4.75-1.43s2.97.1,4.3.6c1.32.5,2.49,1.22,3.5,2.16,1.01.94,1.83,2,2.45,3.18.11.21.25.53.41.95.16.42.32.91.47,1.47.14.56.24,1.14.28,1.75.04.61-.02,1.18-.17,1.71l1.22-.64,1.46,2.79-6.21,3.26-1.46-2.79Z"/>
      <path class="st4" d="M446.09,206.19c.26-1.57.8-2.95,1.61-4.13.81-1.18,1.8-2.16,2.97-2.95,1.16-.79,2.4-1.36,3.72-1.71,1.49-.4,2.97-.5,4.45-.31,1.48.19,2.86.65,4.14,1.37,1.28.72,2.38,1.68,3.3,2.87.92,1.19,1.59,2.56,2,4.11.41,1.54.52,3.07.32,4.57-.2,1.5-.67,2.88-1.4,4.15-.74,1.26-1.7,2.35-2.88,3.26s-2.53,1.56-4.04,1.97-3,.49-4.49.27c-1.49-.22-2.87-.71-4.13-1.45s-2.35-1.72-3.27-2.91c-.91-1.19-1.56-2.53-1.96-3.99-.49-1.83-.61-3.54-.35-5.11ZM463.42,203.59c-.64-.81-1.41-1.44-2.29-1.89-.89-.45-1.86-.7-2.91-.77-1.05-.07-2.13.04-3.23.34-.97.26-1.83.68-2.58,1.27-.75.58-1.37,1.29-1.84,2.11-.47.82-.78,1.7-.9,2.65-.13.95-.07,1.9.19,2.87.29,1.06.74,2,1.37,2.8.63.8,1.38,1.45,2.24,1.94.87.49,1.81.8,2.84.92,1.03.12,2.06.04,3.1-.24.99-.26,1.88-.7,2.68-1.29.8-.6,1.45-1.31,1.96-2.14.5-.83.83-1.73.97-2.7.14-.97.08-1.96-.19-2.96-.3-1.12-.77-2.09-1.41-2.9Z"/>
      <path class="st4" d="M451.32,233.69l2.93-.18.15,2.42,15.74-.99-.15-2.42,2.93-.18.56,8.95-2.93.18-.16-2.63-15.74.99.32,5.15,3.47-.22.22,3.44-6.41.4-.93-14.91Z"/>
      <path class="st4" d="M451.97,259.98l2.92.32-.26,2.42,15.68,1.7.26-2.42,2.92.32-.97,8.91-2.92-.32.29-2.62-15.68-1.7-.56,5.13,3.46.38-.37,3.43-6.38-.69,1.61-14.85Z"/>
      <path class="st4" d="M448.24,285.79l2.82.83-.65,2.21,15.13,4.47.65-2.21,2.82.83-4.72,15.99-5.49-1.62.98-3.31,2.68.79,1.99-6.73-5.23-1.55-1.71,5.78-3.28-.97,1.71-5.78-6.62-1.95-1.99,6.73,3.39,1-.98,3.31-6.21-1.83,4.72-15.99Z"/>
      <path class="st4" d="M429.61,330.83l1.49-2.77,2.01,1.08c-.37-1.17-.49-2.39-.36-3.63.13-1.25.47-2.4,1.04-3.46.78-1.44,1.74-2.64,2.88-3.59,1.15-.95,2.4-1.62,3.76-2,1.36-.38,2.78-.47,4.27-.28,1.48.19,2.95.68,4.39,1.46,1.27.68,2.37,1.59,3.3,2.74.93,1.15,1.61,2.43,2.06,3.84.44,1.42.6,2.87.48,4.36-.12,1.49-.54,2.91-1.27,4.27-.56,1.04-1.18,1.89-1.88,2.55-.69.66-1.58,1.26-2.66,1.79l1.29.69-1.49,2.77-6.61-3.55,1.43-2.67c.66.24,1.33.33,1.99.25.66-.07,1.31-.29,1.92-.64.58-.32,1.11-.73,1.6-1.23.48-.5.89-1.05,1.21-1.65.5-.93.79-1.89.87-2.87.08-.98-.03-1.93-.33-2.85-.3-.92-.77-1.76-1.41-2.51-.64-.75-1.42-1.37-2.33-1.87-2.04-1.1-4.02-1.4-5.93-.9-1.91.49-3.41,1.76-4.51,3.81-.71,1.32-1.02,2.6-.94,3.85.08,1.25.57,2.44,1.48,3.59l2.38-4.44,2.8,1.5-4.96,9.25-2.8-1.5,1.09-2.03-6.26-3.36Z"/>
      <path class="st4" d="M422.05,341.8l2.25,1.89-1.48,1.77,12.1,10.12,1.48-1.77,2.25,1.89-10.7,12.79-4.39-3.68,2.21-2.64,2.14,1.79,4.5-5.38-4.19-3.5-3.87,4.62-2.62-2.19,3.87-4.62-5.29-4.43-4.5,5.38,2.71,2.27-2.21,2.65-4.97-4.16,10.7-12.79Z"/>
    </g>
    <g>
      <path class="st4" d="M259.96,421.41l.59-2.82,2.44.51,3.21-15.34-2.44-.51.59-2.82,6.01,1.26-3.81,18.17,2.47.52-.59,2.82-8.47-1.78Z"/>
      <path class="st4" d="M294.02,404.5c.78.41,1.41.93,1.91,1.55.49.63.85,1.29,1.08,1.99.22.7.32,1.39.28,2.05-.02.4-.09.83-.19,1.28-.11.45-.27.9-.5,1.34-.23.44-.53.86-.91,1.26-.38.39-.84.73-1.38,1v.06c1.84,1.2,2.69,2.95,2.56,5.25-.1,1.84-.79,3.31-2.06,4.4-1.27,1.1-2.85,1.59-4.75,1.48-1.9-.11-3.42-.77-4.56-2-1.14-1.23-1.66-2.76-1.55-4.6.13-2.31,1.17-3.95,3.14-4.94v-.06c-.51-.33-.93-.72-1.26-1.15-.33-.43-.58-.88-.76-1.35-.18-.47-.29-.93-.35-1.39-.06-.46-.07-.89-.05-1.3.04-.67.21-1.34.51-2.03.3-.68.73-1.3,1.29-1.86.56-.56,1.25-1,2.07-1.31.82-.32,1.74-.45,2.78-.39,1.03.06,1.94.29,2.71.7ZM292.32,422.15c.56-.51.86-1.29.92-2.34.06-1.05-.16-1.86-.65-2.42-.5-.57-1.16-.87-1.99-.92-.83-.05-1.52.18-2.08.69-.56.51-.86,1.29-.92,2.34-.06,1.05.16,1.86.65,2.42.5.57,1.16.87,1.99.92s1.52-.18,2.08-.69ZM289.15,407.81c-.52.5-.81,1.24-.87,2.23-.06,1.01.15,1.79.61,2.35.47.55,1.09.85,1.88.9.79.04,1.44-.18,1.97-.68.52-.5.82-1.25.87-2.26.06-.99-.15-1.76-.62-2.32-.47-.55-1.09-.85-1.88-.9-.79-.04-1.45.18-1.97.68Z"/>
      <path class="st4" d="M316.77,420.02l-7.59.7-.3-3.3,6.52-13.66,3.27-.3,1.22,13.22,2.15-.2.28,3.02-2.15.2.21,2.24,2.15-.2.27,2.87-8.14.75-.27-2.87,2.6-.24-.21-2.24ZM316.49,417l-.71-7.71h-.09s-3.88,8.15-3.88,8.15l4.69-.43Z"/>
      <path class="st4" d="M339.72,399.41c.86.16,1.62.47,2.28.92.65.45,1.19.98,1.61,1.59.42.6.71,1.23.87,1.88.1.39.16.82.19,1.28.03.46,0,.94-.08,1.43-.09.49-.25.98-.5,1.47-.24.49-.58.94-1.02,1.37v.06c2.13.6,3.46,2.02,4.02,4.26.44,1.79.22,3.39-.67,4.81-.89,1.42-2.26,2.36-4.1,2.82-1.85.46-3.5.27-4.95-.57-1.45-.84-2.4-2.15-2.84-3.94-.56-2.24-.04-4.12,1.54-5.64v-.06c-.6-.17-1.11-.41-1.56-.73-.44-.32-.82-.67-1.13-1.07-.31-.39-.55-.8-.74-1.22-.19-.42-.33-.83-.43-1.22-.16-.65-.2-1.34-.11-2.09s.32-1.46.68-2.16c.37-.7.9-1.32,1.59-1.87s1.53-.94,2.54-1.19c1-.25,1.94-.29,2.8-.13ZM336.05,404.02c-.35.63-.41,1.43-.17,2.39.24.98.67,1.67,1.28,2.06.61.39,1.3.49,2.06.3.77-.19,1.33-.6,1.68-1.23.35-.63.41-1.44.17-2.42-.24-.96-.66-1.64-1.27-2.03-.61-.39-1.3-.49-2.06-.3-.77.19-1.33.6-1.68,1.23ZM343.3,416.79c.38-.65.45-1.48.19-2.5-.25-1.02-.7-1.73-1.34-2.12-.64-.39-1.36-.49-2.17-.29-.81.2-1.4.62-1.78,1.27-.38.65-.45,1.48-.19,2.5.25,1.02.7,1.73,1.34,2.12.64.39,1.36.49,2.17.29s1.4-.62,1.78-1.27Z"/>
    </g>
    <g>
      <circle class="st4" cx="300" cy="250" r="135.25"/>
      <path class="st2" d="M300,387.8c-36.81,0-71.41-14.33-97.44-40.36-26.03-26.03-40.36-60.63-40.36-97.44s14.33-71.41,40.36-97.44c26.03-26.03,60.63-40.36,97.44-40.36s71.41,14.33,97.44,40.36c26.03,26.03,40.36,60.63,40.36,97.44s-14.33,71.41-40.36,97.44-60.63,40.36-97.44,40.36ZM300,117.3c-35.45,0-68.77,13.8-93.84,38.87s-38.87,58.39-38.87,93.84,13.8,68.77,38.87,93.84c25.06,25.06,58.39,38.87,93.84,38.87s68.77-13.8,93.84-38.87c25.06-25.06,38.87-58.39,38.87-93.84s-13.8-68.77-38.87-93.84-58.39-38.87-93.84-38.87Z"/>
    </g>
    <circle class="st4" cx="221.52" cy="394.66" r="3.55"/>
    <circle class="st4" cx="382.51" cy="394.66" r="3.55"/>
    <g>
      <path class="st1" d="M300,174.01c24.16,0,47.5,1.74,65.74,4.89l1.54.27v99.22c0,8.79-2.49,17.37-7.19,24.8-4.7,7.43-11.39,13.35-19.34,17.11l-40.75,19.28-40.75-19.28c-7.95-3.76-14.64-9.68-19.34-17.11-4.7-7.43-7.19-16.01-7.19-24.8v-99.22l1.54-.27c18.23-3.15,41.58-4.89,65.74-4.89M300,168.92c-24.44,0-48.09,1.76-66.61,4.96l-1.54.27-4.22.73v103.5c0,9.76,2.76,19.28,7.98,27.52,5.22,8.25,12.64,14.81,21.47,18.98l40.75,19.28,2.18,1.03,2.18-1.03,40.75-19.28c8.82-4.17,16.24-10.74,21.47-18.98,5.22-8.25,7.98-17.76,7.98-27.52v-103.5l-4.22-.73-1.54-.27c-18.51-3.2-42.17-4.96-66.61-4.96h0Z"/>
      <g>
        <path class="st2" d="M300,175.86c-25.03,0-47.91,1.83-65.42,4.86v97.65c0,17.21,9.92,32.87,25.47,40.23l39.95,18.9,39.95-18.9c15.55-7.36,25.47-23.02,25.47-40.23v-97.65c-17.51-3.03-40.39-4.86-65.42-4.86Z"/>
        <path class="st4" d="M300,340.32l-41.04-19.42c-16.36-7.74-26.93-24.43-26.93-42.53v-99.8l2.11-.36c18.27-3.16,41.66-4.9,65.86-4.9s47.58,1.74,65.86,4.9l2.11.36v99.8c0,18.1-10.57,34.79-26.93,42.53l-41.04,19.42ZM237.12,182.88v95.5c0,16.14,9.43,31.03,24.01,37.93l38.86,18.39,38.86-18.39c14.59-6.9,24.01-21.79,24.01-37.93v-95.5c-17.67-2.89-39.89-4.47-62.88-4.47s-45.21,1.58-62.88,4.47Z"/>
      </g>
      <g class="st3">
        <g>
          <polygon class="st1" points="397.53 174 369.58 146.06 299.22 216.42 228.86 146.06 200.92 174 271.28 244.36 200.92 314.72 228.86 342.67 299.22 272.31 369.58 342.67 397.53 314.72 327.17 244.36 397.53 174"/>
          <path class="st4" d="M369.58,346.27l-70.36-70.36-70.36,70.36-31.54-31.54,70.36-70.36-70.36-70.36,31.54-31.54,70.36,70.36,70.36-70.36,31.54,31.54-70.36,70.36,70.36,70.36-31.54,31.54ZM204.52,314.72l24.34,24.34,70.36-70.36,70.36,70.36,24.34-24.34-70.36-70.36,70.36-70.36-24.34-24.34-70.36,70.36-70.36-70.36-24.34,24.34,70.36,70.36-70.36,70.36Z"/>
        </g>
      </g>
      <g>
        <g>
          <path class="st1" d="M316.23,259.25c-2.45-1.31-5.2-2.04-8.11-2.04s-5.66.73-8.11,2.04c-2.45-1.31-5.2-2.04-8.11-2.04s-5.66.73-8.11,2.04v-28.32c2.45-1.31,5.2-2.04,8.11-2.04s5.66.73,8.11,2.04c2.45-1.31,5.2-2.04,8.11-2.04s5.66.73,8.11,2.04v28.32Z"/>
          <path class="st4" d="M318.77,263.5l-3.74-2c-2.17-1.16-4.49-1.74-6.92-1.74s-4.75.59-6.92,1.74l-1.2.64-1.2-.64c-2.17-1.16-4.49-1.74-6.92-1.74s-4.75.59-6.92,1.74l-3.74,2v-34.09l1.35-.72c2.91-1.55,6.05-2.34,9.31-2.34,2.82,0,5.55.59,8.11,1.75,2.57-1.16,5.29-1.75,8.11-1.75,3.27,0,6.4.79,9.31,2.34l1.35.72v34.09ZM291.89,254.67c2.82,0,5.55.59,8.11,1.75,2.57-1.16,5.29-1.75,8.11-1.75,1.91,0,3.77.27,5.57.8v-22.92c-1.77-.73-3.64-1.11-5.57-1.11-2.42,0-4.75.59-6.92,1.74l-1.2.64-1.2-.64c-2.17-1.16-4.49-1.74-6.92-1.74-1.93,0-3.79.37-5.57,1.11v22.92c1.8-.53,3.66-.8,5.57-.8Z"/>
        </g>
        <rect class="st4" x="297.45" y="231.12" width="5.09" height="28.37"/>
      </g>
    </g>
    <g>
      <g>
        <path class="st1" d="M369.55,325.57c-1.95,2.16-2.98,5.14-3.16,7.52-.02.31.18.53.49.54,2.4.06,5.17-1.13,7.3-3.5,2.13-2.36,3.08-5.31,2.82-7.74-.03-.31-.28-.49-.59-.43-2.4.49-4.91,1.45-6.86,3.6Z"/>
        <g>
          <path class="st1" d="M367.9,343.18c-2.72.49-4.89-.49-6.13-2.21-.16-.22-.11-.57.11-.83,1.75-2.04,4.09-3.62,6.68-4.22,2.58-.59,4.89-.05,6.36,1.49.19.2.17.57-.04.89-1.66,2.5-4.28,4.4-6.99,4.88Z"/>
          <path class="st1" d="M357.32,332.97c-.11,2.43.76,4.58,2.42,5.89.21.17.56.14.82-.08,2.03-1.67,3.37-4.2,3.37-6.72,0-2.53-1.28-4.47-3.09-5.54-.23-.14-.55-.08-.76.13-1.6,1.67-2.65,3.88-2.77,6.32Z"/>
        </g>
        <g>
          <path class="st1" d="M357.98,351.94c-2.77.05-4.76-1.27-5.7-3.16-.12-.24-.02-.58.25-.81,2.08-1.74,4.65-2.93,7.31-3.11,2.65-.18,4.84.73,6.04,2.49.15.23.08.59-.19.88-2.04,2.2-4.95,3.67-7.71,3.71Z"/>
          <path class="st1" d="M349.19,340.15c-.51,2.38,0,4.65,1.42,6.22.18.2.53.22.82.05,2.29-1.33,4.04-3.62,4.45-6.11.42-2.5-.53-4.63-2.15-5.98-.21-.17-.53-.17-.77,0-1.86,1.4-3.26,3.42-3.78,5.81Z"/>
        </g>
        <g>
          <path class="st1" d="M346.66,359.03c-2.77-.39-4.53-2.02-5.14-4.04-.08-.26.08-.58.39-.76,2.37-1.39,5.13-2.16,7.8-1.91,2.66.25,4.68,1.49,5.58,3.43.11.25-.02.6-.33.84-2.4,1.86-5.53,2.84-8.29,2.44Z"/>
          <path class="st1" d="M339.92,345.96c-.92,2.28-.8,4.6.35,6.38.15.23.49.31.81.18,2.52-.95,4.64-2.93,5.47-5.34.84-2.41.25-4.67-1.13-6.26-.18-.21-.5-.25-.76-.11-2.08,1.09-3.81,2.87-4.74,5.15Z"/>
        </g>
        <g>
          <path class="st1" d="M334.1,364.22c-2.72-.84-4.2-2.73-4.46-4.83-.03-.27.19-.56.53-.68,2.63-.99,5.54-1.3,8.16-.63,2.62.67,4.42,2.23,4.98,4.29.07.26-.13.59-.48.78-2.72,1.45-6.03,1.92-8.74,1.08Z"/>
          <path class="st1" d="M329.63,350.21c-1.33,2.1-1.63,4.42-.77,6.36.11.25.44.38.79.31,2.7-.53,5.18-2.15,6.42-4.4,1.26-2.25,1.06-4.58-.04-6.37-.14-.23-.45-.33-.74-.23-2.26.74-4.31,2.22-5.65,4.33Z"/>
        </g>
        <g>
          <path class="st1" d="M320.48,367.29c-2.61-1.28-3.79-3.39-3.66-5.51.02-.27.29-.52.66-.59,2.87-.54,5.87-.37,8.4.73,2.53,1.09,4.07,2.92,4.27,5.05.02.27-.23.56-.62.69-3,.99-6.45.91-9.05-.37Z"/>
          <path class="st1" d="M318.47,352.72c-1.73,1.85-2.46,4.09-1.94,6.15.07.26.38.45.74.44,2.85-.07,5.65-1.26,7.32-3.28,1.67-2.02,1.88-4.35,1.1-6.3-.1-.25-.4-.4-.71-.35-2.42.36-4.76,1.49-6.5,3.34Z"/>
        </g>
      </g>
      <g>
        <path class="st1" d="M230.45,325.57c1.95,2.16,2.98,5.14,3.16,7.52.02.31-.18.53-.49.54-2.4.06-5.17-1.13-7.3-3.5-2.13-2.36-3.08-5.31-2.82-7.74.03-.31.28-.49.59-.43,2.4.49,4.91,1.45,6.86,3.6Z"/>
        <g>
          <path class="st1" d="M232.1,343.18c2.72.49,4.89-.49,6.13-2.21.16-.22.11-.57-.11-.83-1.75-2.04-4.09-3.62-6.68-4.22-2.58-.59-4.89-.05-6.36,1.49-.19.2-.17.57.04.89,1.66,2.5,4.28,4.4,6.99,4.88Z"/>
          <path class="st1" d="M242.68,332.97c.11,2.43-.76,4.58-2.42,5.89-.21.17-.56.14-.82-.08-2.03-1.67-3.37-4.2-3.37-6.72,0-2.53,1.28-4.47,3.09-5.54.23-.14.55-.08.76.13,1.6,1.67,2.65,3.88,2.77,6.32Z"/>
        </g>
        <g>
          <path class="st1" d="M242.02,351.94c2.77.05,4.76-1.27,5.7-3.16.12-.24.02-.58-.25-.81-2.08-1.74-4.65-2.93-7.31-3.11-2.65-.18-4.84.73-6.04,2.49-.15.23-.08.59.19.88,2.04,2.2,4.95,3.67,7.71,3.71Z"/>
          <path class="st1" d="M250.81,340.15c.51,2.38,0,4.65-1.42,6.22-.18.2-.53.22-.82.05-2.29-1.33-4.04-3.62-4.45-6.11-.42-2.5.53-4.63,2.15-5.98.21-.17.53-.17.77,0,1.86,1.4,3.26,3.42,3.78,5.81Z"/>
        </g>
        <g>
          <path class="st1" d="M253.34,359.03c2.77-.39,4.53-2.02,5.14-4.04.08-.26-.08-.58-.39-.76-2.37-1.39-5.13-2.16-7.8-1.91-2.66.25-4.68,1.49-5.58,3.43-.11.25.02.6.33.84,2.4,1.86,5.53,2.84,8.29,2.44Z"/>
          <path class="st1" d="M260.08,345.96c.92,2.28.8,4.6-.35,6.38-.15.23-.49.31-.81.18-2.52-.95-4.64-2.93-5.47-5.34-.84-2.41-.25-4.67,1.13-6.26.18-.21.5-.25.76-.11,2.08,1.09,3.81,2.87,4.74,5.15Z"/>
        </g>
        <g>
          <path class="st1" d="M265.9,364.22c2.72-.84,4.2-2.73,4.46-4.83.03-.27-.19-.56-.53-.68-2.63-.99-5.54-1.3-8.16-.63-2.62.67-4.42,2.23-4.98,4.29-.07.26.13.59.48.78,2.72,1.45,6.03,1.92,8.74,1.08Z"/>
          <path class="st1" d="M270.37,350.21c1.33,2.1,1.63,4.42.77,6.36-.11.25-.44.38-.79.31-2.7-.53-5.18-2.15-6.42-4.4-1.26-2.25-1.06-4.58.04-6.37.14-.23.45-.33.74-.23,2.26.74,4.31,2.22,5.65,4.33Z"/>
        </g>
        <g>
          <path class="st1" d="M279.52,367.29c2.61-1.28,3.79-3.39,3.66-5.51-.02-.27-.29-.52-.66-.59-2.87-.54-5.87-.37-8.4.73-2.53,1.09-4.07,2.92-4.27,5.05-.02.27.23.56.62.69,3,.99,6.45.91,9.05-.37Z"/>
          <path class="st1" d="M281.53,352.72c1.73,1.85,2.46,4.09,1.94,6.15-.07.26-.38.45-.74.44-2.85-.07-5.65-1.26-7.32-3.28-1.67-2.02-1.88-4.35-1.1-6.3.1-.25.4-.4.71-.35,2.42.36,4.76,1.49,6.5,3.34Z"/>
        </g>
      </g>
    </g>
    <g>
      <path class="st1" d="M196.23,299.88l-3.83,1.65-4.43-10.27,3.83-1.65.94,2.18-1.97.85.74,1.72,9.97-4.3-.71-1.65,1.86-.8,2.49,5.76-1.86.8-.71-1.65-9.97,4.3.74,1.72,1.97-.85.94,2.18Z"/>
      <path class="st1" d="M200.04,280.76l-1.96.49-.39-1.54-10.53,2.64.39,1.54-1.96.49-1.56-6.21c-.26-1.03-.38-1.85-.36-2.46.02-.43.1-.85.23-1.25.13-.4.35-.79.65-1.16.28-.35.58-.61.89-.78.31-.16.62-.28.91-.36.83-.21,1.55-.19,2.16.04.61.24,1.18.7,1.69,1.39h.04c0-.42.05-.77.15-1.05.11-.28.24-.51.41-.68.17-.17.36-.3.57-.4.21-.1.45-.18.72-.24l3.26-.82-.35-1.4,1.96-.49,1.01,4-5.06,1.27c-.32.08-.56.22-.73.43-.17.21-.27.44-.31.72-.04.27-.04.55,0,.84.04.29.1.59.18.91l.39,1.56,4.6-1.16-.4-1.6,1.96-.49,1.44,5.74ZM190.47,278.76l-.42-1.68c-.1-.41-.22-.78-.36-1.09-.14-.31-.31-.59-.53-.83-.22-.24-.49-.39-.82-.47-.33-.08-.73-.06-1.2.06-.43.11-.74.29-.94.54s-.31.55-.34.87c-.03.33-.02.66.04.99.06.33.14.74.26,1.22l.35,1.38,3.96-1Z"/>
      <path class="st1" d="M181.3,264.96l-.43-5.76,2.02-.15.12,1.61,6.75-.51c.69-.05,1.25-.12,1.7-.21.45-.09.83-.24,1.16-.44.32-.2.56-.5.72-.89.16-.39.21-.9.16-1.53-.04-.56-.17-1-.37-1.33-.2-.32-.48-.55-.83-.69-.35-.14-.75-.22-1.2-.23-.45-.01-1.03,0-1.74.06l-6.75.51.12,1.61-2.02.15-.43-5.76,2.02-.15.11,1.48,7.88-.59c.93-.07,1.75.02,2.45.27.7.25,1.28.61,1.75,1.08.46.47.81.99,1.05,1.58.24.58.38,1.18.43,1.8.06.75,0,1.47-.17,2.15-.17.68-.45,1.29-.83,1.83-.39.54-.88.97-1.48,1.3-.6.33-1.29.52-2.06.58l-8.21.62.11,1.48-2.02.15Z"/>
      <path class="st1" d="M184.58,244.4l-4.15-.37.98-11.14,4.15.37-.21,2.36-2.14-.19-.16,1.87,10.81.95.16-1.79,2.01.18-.55,6.25-2.01-.18.16-1.79-10.81-.95-.16,1.87,2.14.19-.21,2.36Z"/>
      <path class="st1" d="M196.95,229.45l-1.96-.51.4-1.54-10.51-2.72-.4,1.54-1.96-.51,1.47-5.67,1.96.51-.4,1.54,3.64.94,1.34-5.15-3.64-.94-.4,1.54-1.96-.51,1.47-5.67,1.96.51-.4,1.54,10.51,2.72.4-1.54,1.96.51-1.47,5.67-1.96-.51.4-1.54-4.59-1.19-1.34,5.15,4.6,1.19.4-1.54,1.96.51-1.47,5.67Z"/>
      <path class="st1" d="M248.08,158.04l-.92-1.8,1.49-.76-4.93-9.67-1.49.76-.92-1.8,5.5-2.8.92,1.8-1.62.82,4.92,9.67,3.16-1.61-1.09-2.13,2.12-1.08,2,3.94-9.16,4.66Z"/>
      <path class="st1" d="M265.7,149.74c-1.09-.14-2.05-.47-2.88-1-.83-.53-1.53-1.18-2.11-1.96-.57-.78-1-1.62-1.27-2.51-.31-1.01-.42-2.03-.33-3.05.09-1.02.37-1.98.84-2.88.46-.9,1.09-1.68,1.89-2.34.8-.66,1.72-1.16,2.77-1.48,1.05-.32,2.1-.44,3.13-.34,1.04.1,2,.38,2.89.86.89.47,1.66,1.11,2.31,1.9.65.79,1.14,1.7,1.46,2.73.32,1.03.42,2.05.3,3.08-.11,1.03-.41,1.99-.89,2.88-.48.89-1.12,1.66-1.92,2.32-.8.66-1.7,1.14-2.7,1.45-1.25.39-2.42.51-3.5.37ZM263.47,137.89c-.54.46-.95,1-1.24,1.62-.28.62-.44,1.29-.46,2.02-.02.73.08,1.46.32,2.21.2.66.51,1.24.94,1.74.42.5.92.91,1.5,1.21.58.3,1.19.49,1.84.55.65.07,1.31,0,1.97-.21.72-.22,1.35-.56,1.89-1.02.54-.45.96-.98,1.28-1.59.32-.61.5-1.27.56-1.98.05-.71-.03-1.42-.25-2.13-.21-.67-.53-1.27-.96-1.81-.43-.54-.94-.97-1.52-1.29-.58-.32-1.21-.52-1.88-.6-.67-.07-1.35,0-2.03.21-.76.24-1.41.58-1.96,1.05Z"/>
      <path class="st1" d="M291.57,131.71l-3.44,6.27.59,5,1.66-.2.24,2.01-6.03.71-.24-2.01,1.7-.2-.6-5.12-4.72-5.18-1.07.13-.24-2.01,5.41-.64.24,2.01-1.33.16,3.06,3.4h.04s2.15-4.02,2.15-4.02l-1.35.16-.24-2.01,4.94-.58.24,2.01-1,.12Z"/>
      <path class="st1" d="M296.91,144.23l.08-2.02,1.22.05,4.12-10.71-1.63-.06.08-2.02,7.69.29-.08,2.02-1.61-.06,3.2,10.98,1.13.04-.08,2.02-5.49-.21.08-2.02,1.63.06-.9-2.95-4.52-.17-1.12,2.87,1.61.06-.08,2.02-5.34-.2ZM305.91,137.6l-1.48-5.09h-.04s-1.9,4.97-1.9,4.97l3.42.13Z"/>
      <path class="st1" d="M315.65,145.46l.4-1.98,1.64.33,2.13-10.65-1.64-.33.4-1.98,6.05,1.21-.4,1.98-1.78-.36-2.13,10.65,3.48.7.47-2.35,2.33.46-.87,4.33-10.08-2.01Z"/>
      <path class="st1" d="M332.47,138.18l1.36-3.94,10.57,3.66-1.36,3.94-2.24-.78.7-2.03-1.77-.61-3.55,10.26,1.7.59-.66,1.91-5.93-2.05.66-1.91,1.7.59,3.55-10.26-1.77-.61-.7,2.03-2.24-.78Z"/>
      <path class="st1" d="M360.5,148.14l-6.41,3.16-2.39,4.43,1.47.79-.96,1.78-5.34-2.88.96-1.78,1.51.81,2.45-4.54-.9-6.95-.94-.51.96-1.78,4.8,2.58-.96,1.78-1.18-.64.55,4.54.04.02,4.06-2.06-1.2-.65.96-1.78,4.38,2.36-.96,1.78-.89-.48Z"/>
      <path class="st4" d="M399.92,294.61c-.96-.33-1.85-.35-2.69-.04-.84.3-1.47.9-1.91,1.79-.27.54-.31,1.11-.12,1.7.19.59.55,1.02,1.09,1.28.68.33,1.24.38,1.68.14s1.02-.78,1.73-1.61c.36-.42.64-.74.83-.95.04-.04.09-.1.16-.18.26-.32.54-.61.83-.89.29-.28.67-.53,1.13-.76.46-.22,1.01-.34,1.63-.34.62,0,1.3.18,2.03.53.35.17.69.43,1.03.8.34.36.63.8.86,1.32.23.52.33,1.11.31,1.77-.02.66-.21,1.36-.57,2.09-.25.51-.59.95-1.02,1.33-.43.38-.92.67-1.46.86l.83.41-.95,1.95-4-1.96.91-1.85c.8.21,1.53.19,2.19-.05.71-.26,1.24-.75,1.6-1.47.27-.56.33-1.09.18-1.59-.15-.5-.51-.89-1.08-1.17-.48-.24-.95-.19-1.4.14-.45.33-1.04.91-1.77,1.73-.31.35-.53.6-.67.75-.46.5-.86.89-1.22,1.2-.35.3-.76.55-1.22.73-.46.19-.97.26-1.53.22-.56-.04-1.19-.23-1.88-.57-.62-.3-1.13-.69-1.54-1.15-.41-.46-.7-.97-.88-1.53-.18-.56-.24-1.15-.18-1.77.06-.62.23-1.23.53-1.83.64-1.31,1.57-2.24,2.77-2.78l-.83-.41.95-1.95,4.58,2.25-.92,1.87Z"/>
    </g>
    <g>
      <path class="st1" d="M399.01,201.56c-.87.52-1.45,1.2-1.76,2.04-.3.84-.25,1.71.15,2.61.25.55.66.95,1.23,1.18.57.23,1.13.23,1.69-.02.69-.31,1.08-.71,1.18-1.2.1-.49.05-1.28-.13-2.36-.09-.55-.16-.96-.19-1.25-.01-.06-.02-.13-.04-.23-.08-.4-.13-.81-.16-1.21-.03-.4.02-.85.14-1.35.12-.5.38-.99.78-1.47.4-.48.97-.88,1.71-1.21.35-.16.78-.25,1.27-.29.5-.03,1.02.03,1.56.18.54.16,1.07.45,1.56.9.5.44.91,1.03,1.24,1.77.23.51.35,1.06.37,1.63.01.57-.08,1.13-.27,1.67l.85-.38.88,1.98-4.07,1.82-.84-1.88c.67-.48,1.13-1.05,1.36-1.71.25-.72.22-1.44-.11-2.17-.25-.57-.62-.95-1.1-1.16-.48-.21-1.02-.18-1.59.08-.49.22-.75.61-.79,1.17-.04.56.03,1.38.2,2.47.07.47.12.8.15,1,.09.67.13,1.24.14,1.7,0,.47-.07.93-.22,1.41-.15.47-.42.91-.81,1.32-.39.41-.94.77-1.64,1.08-.63.28-1.25.43-1.87.45-.62.02-1.2-.08-1.74-.31-.54-.22-1.04-.55-1.47-.99-.44-.44-.79-.96-1.07-1.58-.59-1.33-.72-2.63-.37-3.91l-.85.38-.88-1.98,4.65-2.08.85,1.9Z"/>
      <path class="st1" d="M399.53,216.12l1.95-.53.41,1.53,10.48-2.83-.41-1.53,1.95-.53,3,11.08-3.81,1.03-.62-2.29,1.85-.5-1.26-4.66-3.63.98,1.08,4-2.27.61-1.08-4-4.58,1.24,1.26,4.66,2.35-.64.62,2.29-4.3,1.16-3-11.08Z"/>
      <path class="st1" d="M403.43,231.85l2.01-.21.16,1.58,10.8-1.12-.16-1.58,2.01-.21.66,6.36c.11,1.05.11,1.88,0,2.49-.08.42-.22.82-.4,1.2-.19.38-.46.73-.81,1.06-.33.31-.66.52-.99.64-.33.12-.65.19-.95.22-.85.09-1.56-.03-2.13-.35-.57-.32-1.06-.86-1.48-1.62h-.04c-.05.41-.15.75-.3,1.01s-.31.47-.51.61c-.19.14-.4.25-.62.31-.22.06-.47.11-.74.14l-3.35.35.15,1.44-2.01.21-.43-4.11,5.19-.54c.33-.03.59-.14.79-.32.2-.18.33-.4.41-.66s.12-.54.12-.83c0-.29-.01-.6-.04-.93l-.17-1.6-4.72.49.17,1.64-2.01.21-.61-5.89ZM412.62,235.19l.18,1.72c.04.42.11.8.2,1.13.09.33.22.63.4.89.18.26.43.46.75.59.32.13.72.16,1.19.11.44-.05.77-.18,1.01-.41.23-.22.39-.5.46-.82.08-.32.11-.65.11-.99,0-.34-.04-.75-.09-1.25l-.15-1.42-4.06.42Z"/>
      <path class="st1" d="M419.73,248.95l-.29,5.48-2.02-.11.08-1.48-8.37,2.37v.04s8.1,2.64,8.1,2.64l.08-1.46,2.02.11-.29,5.4-2.02-.11.06-1.2-12.65-4.68.1-1.92,13.1-3.94.07-1.26,2.02.11Z"/>
      <path class="st1" d="M403.38,265.68l1.99.37-.29,1.54,10.67,2.01.29-1.54,1.99.37-1.07,5.68-1.99-.37.28-1.5-10.67-2.01-.28,1.5-1.99-.37,1.07-5.68Z"/>
      <path class="st1" d="M407.16,290.33c.82.08,1.59-.17,2.33-.75.69-.52,1.18-1.2,1.47-2.05.25-.72.34-1.41.28-2.08-.06-.67-.26-1.28-.59-1.84-.33-.56-.76-1.05-1.3-1.46-.53-.42-1.14-.74-1.82-.97-.68-.23-1.35-.35-2.03-.36-.67,0-1.31.11-1.92.34-.6.24-1.14.6-1.6,1.09-.46.49-.81,1.1-1.06,1.83-.34.99-.39,1.87-.15,2.65.24.78.72,1.53,1.43,2.26l-.8,2.34c-1.5-.97-2.48-2.16-2.94-3.56-.46-1.41-.42-2.91.13-4.5.34-1,.85-1.88,1.52-2.62.67-.74,1.46-1.32,2.37-1.74.91-.42,1.87-.65,2.9-.7,1.03-.05,2.06.1,3.11.46,1.2.41,2.18.98,2.96,1.7.78.73,1.35,1.54,1.73,2.44.37.9.57,1.82.58,2.77,0,.95-.14,1.86-.44,2.73-.05.16-.15.37-.28.66-.13.28-.3.59-.51.93-.21.33-.46.66-.75.97-.29.31-.6.55-.94.73l.9.31-.7,2.05-4.57-1.57.7-2.05Z"/>
      <path class="st1" d="M394.54,294.36l1.77.97-.77,1.39,9.51,5.23.77-1.39,1.77.97-5.53,10.06-3.45-1.9,1.14-2.08,1.68.92,2.33-4.23-3.29-1.81-2,3.64-2.06-1.13,2-3.64-4.16-2.29-2.33,4.23,2.13,1.17-1.14,2.08-3.91-2.15,5.53-10.06Z"/>
    </g>
  </g>
</svg>