<svg width="16" height="15" viewBox="0 0 16 15" fill="none" xmlns="http://www.w3.org/2000/svg">
<g clip-path="url(#clip0_1043_44745)">
<path d="M7.99794 8.42226C8.71843 8.42226 9.30251 7.83819 9.30251 7.11769C9.30251 6.39719 8.71843 5.81311 7.99794 5.81311C7.27744 5.81311 6.69336 6.39719 6.69336 7.11769C6.69336 7.83819 7.27744 8.42226 7.99794 8.42226Z" fill="white"/>
<path d="M8.00017 9.79041C11.8663 9.79041 15.0003 8.59376 15.0003 7.11762C15.0003 5.64147 11.8663 4.44482 8.00017 4.44482C4.13408 4.44482 1 5.64147 1 7.11762C1 8.59376 4.13408 9.79041 8.00017 9.79041Z" stroke="white" stroke-width="0.7"/>
<path d="M5.68513 8.45399C7.61817 11.8021 10.2215 13.918 11.4999 13.1799C12.7783 12.4418 12.2476 9.12933 10.3145 5.7812C8.38149 2.43307 5.77812 0.317197 4.49975 1.05527C3.22137 1.79334 3.75208 5.10586 5.68513 8.45399Z" stroke="white" stroke-width="0.7"/>
<path d="M5.68496 5.78126C3.75191 9.12939 3.2212 12.4419 4.49958 13.18C5.77795 13.9181 8.38132 11.8022 10.3144 8.45405C12.2474 5.10592 12.7781 1.7934 11.4997 1.05533C10.2214 0.317256 7.618 2.43313 5.68496 5.78126Z" stroke="white" stroke-width="0.7"/>
</g>
<defs>
<clipPath id="clip0_1043_44745">
<rect width="16" height="14.2355" fill="white"/>
</clipPath>
</defs>
</svg>
