<svg width="17" height="16" viewBox="0 0 17 16" fill="none" xmlns="http://www.w3.org/2000/svg">
<path fill-rule="evenodd" clip-rule="evenodd" d="M6.30908 6.13575C5.26178 6.13575 4.41277 6.98446 4.41277 8.03141C4.41277 9.07835 5.26178 9.92707 6.30908 9.92707H8.25665V8.03141V6.13575H6.30908ZM11.0755 5.21353L11.1267 5.21353C12.1741 5.21353 13.0231 4.36482 13.0231 3.31787C13.0231 2.27093 12.1741 1.42221 11.1267 1.42221H9.17918V5.21353L11.0755 5.21353ZM12.6726 5.67464C13.4393 5.17104 13.9456 4.30356 13.9456 3.31787C13.9456 1.7616 12.6836 0.5 11.1267 0.5H9.17918H8.71792H8.25665H6.30908C4.75228 0.5 3.49023 1.7616 3.49023 3.31787C3.49023 4.30356 3.9965 5.17104 4.76328 5.67464C3.9965 6.17824 3.49023 7.04572 3.49023 8.03141C3.49023 9.01709 3.9965 9.88457 4.76328 10.3882C3.9965 10.8918 3.49023 11.7593 3.49023 12.7449C3.49023 14.3044 4.76826 15.5628 6.32183 15.5628C7.88954 15.5628 9.17918 14.293 9.17918 12.7193V10.8493V10.3882V10.1163C9.67989 10.5717 10.3453 10.8493 11.0755 10.8493H11.1267C12.6836 10.8493 13.9456 9.58767 13.9456 8.03141C13.9456 7.04572 13.4393 6.17824 12.6726 5.67464ZM11.1267 6.13575L11.0755 6.13575C10.0282 6.13575 9.17918 6.98446 9.17918 8.03141C9.17918 9.07835 10.0282 9.92707 11.0755 9.92707H11.1267C12.1741 9.92707 13.0231 9.07835 13.0231 8.03141C13.0231 6.98446 12.1741 6.13575 11.1267 6.13575ZM4.41277 12.7449C4.41277 11.698 5.26178 10.8493 6.30908 10.8493H8.25665V12.7193C8.25665 13.7772 7.38653 14.6406 6.32183 14.6406C5.27128 14.6406 4.41277 13.7887 4.41277 12.7449ZM8.25665 5.21353H6.30908C5.26178 5.21353 4.41277 4.36482 4.41277 3.31787C4.41277 2.27093 5.26178 1.42221 6.30908 1.42221H8.25665V5.21353Z" fill="black"/>
</svg>
